<?xml version="1.0" standalone="yes"?>
<svg xmlns="http://www.w3.org/2000/svg" width="449" height="374">
<path style="fill:#431013; stroke:none;" d="M0 0L0 374L449 374L449 0L0 0z"/>
<path style="fill:#731a1f; stroke:none;" d="M212 80L213 81L212 80z"/>
<path style="fill:#9d1f27; stroke:none;" d="M213 80L214 81L213 80z"/>
<path style="fill:#d02630; stroke:none;" d="M199 162C203.85 164.298 214.836 166.62 218.146 170.404C228.541 182.286 222.221 214.048 247 211.516C252.209 210.984 257.004 207.439 262 206L247 154C251.272 152.545 258.412 150.623 260.972 146.61C265.453 139.585 262 121.265 262 113C262 109.899 262.826 105.203 260.972 102.498C258.752 99.2586 252.472 97.4086 249 95.8611C239.112 91.4544 225.834 81.8303 215 81.0131C208.816 80.5467 200.47 86.1989 195 88.7809C188.137 92.0205 172.157 95.9276 168.028 102.39C165.355 106.573 167 115.202 167 120L167 165L167 193C167 196.438 166.089 201.57 168.028 204.61C173.493 213.176 194.016 213.852 198.397 203.787C202.923 193.387 199 173.367 199 162z"/>
<path style="fill:#9d1f27; stroke:none;" d="M215 80L216 81L215 80z"/>
<path style="fill:#5c171b; stroke:none;" d="M216 80L217 81L216 80z"/>
<path style="fill:#731a1f; stroke:none;" d="M210 81L211 82L210 81z"/>
<path style="fill:#9d1f27; stroke:none;" d="M211 81L212 82L211 81M217 81L218 82L217 81z"/>
<path style="fill:#731a1f; stroke:none;" d="M218 81L219 82L218 81z"/>
<path style="fill:#5c171b; stroke:none;" d="M207 82L208 83L207 82z"/>
<path style="fill:#731a1f; stroke:none;" d="M208 82L209 83L208 82M213 82L214 83L213 82z"/>
<path style="fill:#5c171b; stroke:none;" d="M214 82L215 83L214 82z"/>
<path style="fill:#9d1f27; stroke:none;" d="M215 82L216 83L215 82M219 82L220 83L219 82z"/>
<path style="fill:#731a1f; stroke:none;" d="M220 82L221 83L220 82z"/>
<path style="fill:#5c171b; stroke:none;" d="M205 83L206 84L205 83z"/>
<path style="fill:#9d1f27; stroke:none;" d="M206 83L207 84L206 83M210 83L211 84L210 83z"/>
<path style="fill:#731a1f; stroke:none;" d="M211 83L212 84L211 83z"/>
<path style="fill:#431013; stroke:none;" d="M171 102L171 103L184 107.366L215 95.0278L246 107.574L258 103L226 87.6913L213 83.4838L171 102z"/>
<path style="fill:#5c171b; stroke:none;" d="M216 83L217 84L216 83z"/>
<path style="fill:#731a1f; stroke:none;" d="M217 83L218 84L217 83M222 83L223 84L222 83z"/>
<path style="fill:#5c171b; stroke:none;" d="M203 84L204 85L203 84z"/>
<path style="fill:#9d1f27; stroke:none;" d="M204 84L205 85L204 84M208 84L209 85L208 84z"/>
<path style="fill:#731a1f; stroke:none;" d="M209 84L210 85L209 84M219 84L220 85L219 84z"/>
<path style="fill:#9d1f27; stroke:none;" d="M220 84L221 85L220 84M224 84L225 85L224 84z"/>
<path style="fill:#5c171b; stroke:none;" d="M225 84L226 85L225 84z"/>
<path style="fill:#731a1f; stroke:none;" d="M201 85L202 86L201 85z"/>
<path style="fill:#9d1f27; stroke:none;" d="M202 85L203 86L202 85M206 85L207 86L206 85z"/>
<path style="fill:#5c171b; stroke:none;" d="M207 85L208 86L207 85z"/>
<path style="fill:#731a1f; stroke:none;" d="M221 85L222 86L221 85z"/>
<path style="fill:#9d1f27; stroke:none;" d="M222 85L223 86L222 85M226 85L227 86L226 85z"/>
<path style="fill:#5c171b; stroke:none;" d="M227 85L228 86L227 85z"/>
<path style="fill:#731a1f; stroke:none;" d="M199 86L200 87L199 86z"/>
<path style="fill:#9d1f27; stroke:none;" d="M200 86L201 87L200 86M204 86L205 87L204 86z"/>
<path style="fill:#5c171b; stroke:none;" d="M205 86L206 87L205 86M223 86L224 87L223 86z"/>
<path style="fill:#9d1f27; stroke:none;" d="M224 86L225 87L224 86M228 86L229 87L228 86z"/>
<path style="fill:#5c171b; stroke:none;" d="M229 86L230 87L229 86z"/>
<path style="fill:#731a1f; stroke:none;" d="M197 87L198 88L197 87M202 87L203 88L202 87z"/>
<path style="fill:#5c171b; stroke:none;" d="M203 87L204 88L203 87M225 87L226 88L225 87z"/>
<path style="fill:#9d1f27; stroke:none;" d="M226 87L227 88L226 87M230 87L231 88L230 87z"/>
<path style="fill:#731a1f; stroke:none;" d="M231 87L232 88L231 87z"/>
<path style="fill:#5c171b; stroke:none;" d="M194 88L195 89L194 88z"/>
<path style="fill:#731a1f; stroke:none;" d="M195 88L196 89L195 88z"/>
<path style="fill:#9d1f27; stroke:none;" d="M199 88L200 89L199 88z"/>
<path style="fill:#731a1f; stroke:none;" d="M200 88L201 89L200 88z"/>
<path style="fill:#5c171b; stroke:none;" d="M227 88L228 89L227 88z"/>
<path style="fill:#9d1f27; stroke:none;" d="M228 88L229 89L228 88M232 88L233 89L232 88z"/>
<path style="fill:#731a1f; stroke:none;" d="M233 88L234 89L233 88z"/>
<path style="fill:#5c171b; stroke:none;" d="M192 89L193 90L192 89z"/>
<path style="fill:#9d1f27; stroke:none;" d="M193 89L194 90L193 89M197 89L198 90L197 89z"/>
<path style="fill:#731a1f; stroke:none;" d="M198 89L199 90L198 89M230 89L231 90L230 89M235 89L236 90L235 89z"/>
<path style="fill:#5c171b; stroke:none;" d="M190 90L191 91L190 90z"/>
<path style="fill:#9d1f27; stroke:none;" d="M191 90L192 91L191 90M195 90L196 91L195 90z"/>
<path style="fill:#5c171b; stroke:none;" d="M196 90L197 91L196 90z"/>
<path style="fill:#731a1f; stroke:none;" d="M232 90L233 91L232 90z"/>
<path style="fill:#9d1f27; stroke:none;" d="M233 90L234 91L233 90M237 90L238 91L237 90z"/>
<path style="fill:#5c171b; stroke:none;" d="M238 90L239 91L238 90z"/>
<path style="fill:#731a1f; stroke:none;" d="M188 91L189 92L188 91z"/>
<path style="fill:#9d1f27; stroke:none;" d="M189 91L190 92L189 91M193 91L194 92L193 91z"/>
<path style="fill:#5c171b; stroke:none;" d="M194 91L195 92L194 91z"/>
<path style="fill:#731a1f; stroke:none;" d="M234 91L235 92L234 91z"/>
<path style="fill:#9d1f27; stroke:none;" d="M235 91L236 92L235 91M239 91L240 92L239 91z"/>
<path style="fill:#5c171b; stroke:none;" d="M240 91L241 92L240 91z"/>
<path style="fill:#731a1f; stroke:none;" d="M186 92L187 93L186 92z"/>
<path style="fill:#9d1f27; stroke:none;" d="M187 92L188 93L187 92z"/>
<path style="fill:#731a1f; stroke:none;" d="M191 92L192 93L191 92z"/>
<path style="fill:#5c171b; stroke:none;" d="M192 92L193 93L192 92M236 92L237 93L236 92z"/>
<path style="fill:#9d1f27; stroke:none;" d="M237 92L238 93L237 92M241 92L242 93L241 92z"/>
<path style="fill:#5c171b; stroke:none;" d="M242 92L243 93L242 92z"/>
<path style="fill:#731a1f; stroke:none;" d="M184 93L185 94L184 93M189 93L190 94L189 93z"/>
<path style="fill:#5c171b; stroke:none;" d="M238 93L239 94L238 93z"/>
<path style="fill:#9d1f27; stroke:none;" d="M239 93L240 94L239 93M243 93L244 94L243 93z"/>
<path style="fill:#731a1f; stroke:none;" d="M244 93L245 94L244 93z"/>
<path style="fill:#5c171b; stroke:none;" d="M181 94L182 95L181 94z"/>
<path style="fill:#9d1f27; stroke:none;" d="M182 94L183 95L182 94M186 94L187 95L186 94z"/>
<path style="fill:#731a1f; stroke:none;" d="M187 94L188 95L187 94z"/>
<path style="fill:#5c171b; stroke:none;" d="M213 94L214 95L213 94z"/>
<path style="fill:#731a1f; stroke:none;" d="M214 94L215 95L214 94z"/>
<path style="fill:#5c171b; stroke:none;" d="M215 94L216 95L215 94M240 94L241 95L240 94z"/>
<path style="fill:#731a1f; stroke:none;" d="M241 94L242 95L241 94z"/>
<path style="fill:#9d1f27; stroke:none;" d="M245 94L246 95L245 94z"/>
<path style="fill:#731a1f; stroke:none;" d="M246 94L247 95L246 94z"/>
<path style="fill:#5c171b; stroke:none;" d="M179 95L180 96L179 95z"/>
<path style="fill:#9d1f27; stroke:none;" d="M180 95L181 96L180 95M184 95L185 96L184 95z"/>
<path style="fill:#5c171b; stroke:none;" d="M185 95L186 96L185 95M211 95L212 96L211 95z"/>
<path style="fill:#9d1f27; stroke:none;" d="M212 95L213 96L212 95M216 95L217 96L216 95z"/>
<path style="fill:#5c171b; stroke:none;" d="M217 95L218 96L217 95z"/>
<path style="fill:#731a1f; stroke:none;" d="M243 95L244 96L243 95M248 95L249 96L248 95z"/>
<path style="fill:#5c171b; stroke:none;" d="M177 96L178 97L177 96z"/>
<path style="fill:#9d1f27; stroke:none;" d="M178 96L179 97L178 96M182 96L183 97L182 96z"/>
<path style="fill:#5c171b; stroke:none;" d="M183 96L184 97L183 96M209 96L210 97L209 96z"/>
<path style="fill:#9d1f27; stroke:none;" d="M210 96L211 97L210 96M218 96L219 97L218 96z"/>
<path style="fill:#731a1f; stroke:none;" d="M219 96L220 97L219 96M245 96L246 97L245 96z"/>
<path style="fill:#9d1f27; stroke:none;" d="M246 96L247 97L246 96z"/>
<path style="fill:#731a1f; stroke:none;" d="M250 96L251 97L250 96z"/>
<path style="fill:#5c171b; stroke:none;" d="M251 96L252 97L251 96z"/>
<path style="fill:#731a1f; stroke:none;" d="M175 97L176 98L175 97z"/>
<path style="fill:#9d1f27; stroke:none;" d="M176 97L177 98L176 97M180 97L181 98L180 97z"/>
<path style="fill:#5c171b; stroke:none;" d="M181 97L182 98L181 97z"/>
<path style="fill:#731a1f; stroke:none;" d="M207 97L208 98L207 97z"/>
<path style="fill:#9d1f27; stroke:none;" d="M208 97L209 98L208 97M212 97L213 110L214 110L212 97M215 97L215 110L216 110L217 97L215 97M220 97L221 98L220 97z"/>
<path style="fill:#731a1f; stroke:none;" d="M221 97L222 98L221 97z"/>
<path style="fill:#5c171b; stroke:none;" d="M247 97L248 98L247 97z"/>
<path style="fill:#9d1f27; stroke:none;" d="M248 97L249 98L248 97M252 97L253 98L252 97z"/>
<path style="fill:#5c171b; stroke:none;" d="M253 97L254 98L253 97z"/>
<path style="fill:#731a1f; stroke:none;" d="M173 98L174 99L173 98M178 98L179 99L178 98z"/>
<path style="fill:#5c171b; stroke:none;" d="M204 98L205 99L204 98z"/>
<path style="fill:#731a1f; stroke:none;" d="M205 98L206 99L205 98M210 98L211 99L210 98z"/>
<path style="fill:#5c171b; stroke:none;" d="M211 98L212 99L211 98z"/>
<path style="fill:#431013; stroke:none;" d="M212 98C205.105 101.267 189.203 104.919 185.028 111.394C181.422 116.987 184 130.454 184 137C187.963 135.858 194.599 133.92 196.397 129.787C198.146 125.766 195.784 120.982 198.603 117.214C204.147 109.802 217.501 111.109 212 98M216 98L217.603 109.362L230.397 117.214L232.603 129.786L245 137C245 130.454 247.578 116.987 243.972 111.394C239.912 105.097 222.971 100.374 216 98z"/>
<path style="fill:#5c171b; stroke:none;" d="M217 98L218 99L217 98z"/>
<path style="fill:#731a1f; stroke:none;" d="M218 98L219 99L218 98M223 98L224 99L223 98z"/>
<path style="fill:#5c171b; stroke:none;" d="M224 98L225 99L224 98M249 98L250 99L249 98z"/>
<path style="fill:#9d1f27; stroke:none;" d="M250 98L251 99L250 98M254 98L255 99L254 98z"/>
<path style="fill:#5c171b; stroke:none;" d="M255 98L256 99L255 98M170 99L171 100L170 99z"/>
<path style="fill:#731a1f; stroke:none;" d="M171 99L172 100L171 99z"/>
<path style="fill:#9d1f27; stroke:none;" d="M175 99L176 100L175 99z"/>
<path style="fill:#731a1f; stroke:none;" d="M176 99L177 100L176 99z"/>
<path style="fill:#5c171b; stroke:none;" d="M202 99L203 100L202 99z"/>
<path style="fill:#9d1f27; stroke:none;" d="M203 99L204 100L203 99M207 99L208 100L207 99z"/>
<path style="fill:#731a1f; stroke:none;" d="M208 99L209 100L208 99M220 99L221 100L220 99z"/>
<path style="fill:#9d1f27; stroke:none;" d="M221 99L222 100L221 99M225 99L226 100L225 99z"/>
<path style="fill:#5c171b; stroke:none;" d="M226 99L227 100L226 99M251 99L252 100L251 99z"/>
<path style="fill:#9d1f27; stroke:none;" d="M252 99L253 100L252 99M256 99L257 100L256 99z"/>
<path style="fill:#731a1f; stroke:none;" d="M257 99L258 100L257 99z"/>
<path style="fill:#5c171b; stroke:none;" d="M168 100L169 101L168 100z"/>
<path style="fill:#9d1f27; stroke:none;" d="M169 100L170 101L169 100M173 100L174 101L173 100z"/>
<path style="fill:#731a1f; stroke:none;" d="M174 100L175 101L174 100z"/>
<path style="fill:#5c171b; stroke:none;" d="M200 100L201 101L200 100z"/>
<path style="fill:#9d1f27; stroke:none;" d="M201 100L202 101L201 100M205 100L206 101L205 100z"/>
<path style="fill:#731a1f; stroke:none;" d="M206 100L207 101L206 100M222 100L223 101L222 100z"/>
<path style="fill:#9d1f27; stroke:none;" d="M223 100L224 101L223 100M227 100L228 101L227 100z"/>
<path style="fill:#5c171b; stroke:none;" d="M228 100L229 101L228 100M253 100L254 101L253 100z"/>
<path style="fill:#731a1f; stroke:none;" d="M254 100L255 101L254 100z"/>
<path style="fill:#9d1f27; stroke:none;" d="M258 100L259 101L258 100z"/>
<path style="fill:#731a1f; stroke:none;" d="M259 100L260 101L259 100z"/>
<path style="fill:#5c171b; stroke:none;" d="M166 101L167 102L166 101z"/>
<path style="fill:#9d1f27; stroke:none;" d="M167 101L168 102L167 101M171 101L172 102L171 101z"/>
<path style="fill:#5c171b; stroke:none;" d="M172 101L173 102L172 101z"/>
<path style="fill:#731a1f; stroke:none;" d="M198 101L199 102L198 101z"/>
<path style="fill:#9d1f27; stroke:none;" d="M199 101L200 102L199 101M203 101L204 102L203 101z"/>
<path style="fill:#5c171b; stroke:none;" d="M204 101L205 102L204 101M224 101L225 102L224 101z"/>
<path style="fill:#9d1f27; stroke:none;" d="M225 101L226 102L225 101M229 101L230 102L229 101z"/>
<path style="fill:#731a1f; stroke:none;" d="M230 101L231 102L230 101M256 101L257 102L256 101z"/>
<path style="fill:#9d1f27; stroke:none;" d="M257 101L258 102L257 101z"/>
<path style="fill:#731a1f; stroke:none;" d="M261 101L262 102L261 101z"/>
<path style="fill:#9d1f27; stroke:none;" d="M166 102L166 172L167 206L168 206C162.491 182.862 167 153.796 167 130C167 121.729 169.206 109.639 166 102z"/>
<path style="fill:#5c171b; stroke:none;" d="M170 102L171 103L170 102z"/>
<path style="fill:#731a1f; stroke:none;" d="M196 102L197 103L196 102z"/>
<path style="fill:#9d1f27; stroke:none;" d="M201 102L202 103L201 102z"/>
<path style="fill:#5c171b; stroke:none;" d="M202 102L203 103L202 102M226 102L227 103L226 102z"/>
<path style="fill:#9d1f27; stroke:none;" d="M227 102L228 103L227 102M231 102L232 103L231 102z"/>
<path style="fill:#731a1f; stroke:none;" d="M232 102L233 103L232 102M258 102L257 104L258 102z"/>
<path style="fill:#9d1f27; stroke:none;" d="M262 102L261 148L262 148C265.046 137.696 266.163 111.922 262 102z"/>
<path style="fill:#731a1f; stroke:none;" d="M171 103L172 104L171 103z"/>
<path style="fill:#5c171b; stroke:none;" d="M172 103L173 104L172 103M193 103L194 104L193 103z"/>
<path style="fill:#9d1f27; stroke:none;" d="M194 103L195 104L194 103z"/>
<path style="fill:#731a1f; stroke:none;" d="M199 103L200 104L199 103M229 103L230 104L229 103M234 103L235 104L234 103z"/>
<path style="fill:#9d1f27; stroke:none;" d="M258 103L259 104L258 103M168 104L169 105L168 104M173 104L174 105L173 104z"/>
<path style="fill:#5c171b; stroke:none;" d="M174 104L175 105L174 104M191 104L192 105L191 104z"/>
<path style="fill:#9d1f27; stroke:none;" d="M192 104L193 105L192 104M196 104L197 105L196 104z"/>
<path style="fill:#731a1f; stroke:none;" d="M197 104L198 105L197 104M231 104L232 105L231 104z"/>
<path style="fill:#9d1f27; stroke:none;" d="M232 104L233 105L232 104M236 104L237 105L236 104z"/>
<path style="fill:#5c171b; stroke:none;" d="M237 104L238 105L237 104z"/>
<path style="fill:#731a1f; stroke:none;" d="M255 104L256 105L255 104z"/>
<path style="fill:#9d1f27; stroke:none;" d="M256 104L257 105L256 104M260 104L261 105L260 104z"/>
<path style="fill:#431013; stroke:none;" d="M168 105L168 174L168.603 202.606L182 210L182 153L213 166L213 154C205.712 151.9 187.191 146.136 183.028 139.61C178.156 131.974 186.081 118.952 180.972 111.498C178.602 108.04 171.844 106.107 168 105z"/>
<path style="fill:#731a1f; stroke:none;" d="M170 105L171 106L170 105z"/>
<path style="fill:#9d1f27; stroke:none;" d="M175 105L176 106L175 105z"/>
<path style="fill:#5c171b; stroke:none;" d="M176 105L177 106L176 105z"/>
<path style="fill:#731a1f; stroke:none;" d="M189 105L190 106L189 105z"/>
<path style="fill:#9d1f27; stroke:none;" d="M190 105L191 106L190 105M194 105L195 106L194 105z"/>
<path style="fill:#5c171b; stroke:none;" d="M195 105L196 106L195 105M233 105L234 106L233 105z"/>
<path style="fill:#9d1f27; stroke:none;" d="M234 105L235 106L234 105M238 105L239 106L238 105z"/>
<path style="fill:#5c171b; stroke:none;" d="M239 105L240 106L239 105M252 105L253 106L252 105z"/>
<path style="fill:#731a1f; stroke:none;" d="M253 105L254 106L253 105M258 105L259 106L258 105z"/>
<path style="fill:#431013; stroke:none;" d="M247 141C239.903 142.265 221.403 148.79 217.028 154.699C215.003 157.433 216 162.781 216 166L232 160L247 210L260 204L245 152L259.972 145.301L261 134L261 105C242.541 110.318 247 124.854 247 141z"/>
<path style="fill:#731a1f; stroke:none;" d="M172 106L173 107L172 106z"/>
<path style="fill:#9d1f27; stroke:none;" d="M173 106L174 107L173 106M177 106L178 107L177 106z"/>
<path style="fill:#731a1f; stroke:none;" d="M178 106L179 107L178 106M187 106L188 107L187 106z"/>
<path style="fill:#9d1f27; stroke:none;" d="M188 106L189 107L188 106M192 106L193 107L192 106z"/>
<path style="fill:#5c171b; stroke:none;" d="M193 106L194 107L193 106M235 106L236 107L235 106z"/>
<path style="fill:#9d1f27; stroke:none;" d="M236 106L237 107L236 106M240 106L241 107L240 106z"/>
<path style="fill:#5c171b; stroke:none;" d="M241 106L242 107L241 106M250 106L251 107L250 106z"/>
<path style="fill:#9d1f27; stroke:none;" d="M251 106L252 107L251 106M255 106L256 107L255 106z"/>
<path style="fill:#731a1f; stroke:none;" d="M256 106L257 107L256 106M174 107L175 108L174 107z"/>
<path style="fill:#9d1f27; stroke:none;" d="M175 107L176 108L175 107z"/>
<path style="fill:#731a1f; stroke:none;" d="M180 107L181 108L180 107z"/>
<path style="fill:#5c171b; stroke:none;" d="M184 107L185 108L184 107z"/>
<path style="fill:#731a1f; stroke:none;" d="M185 107L186 108L185 107z"/>
<path style="fill:#9d1f27; stroke:none;" d="M190 107L191 108L190 107z"/>
<path style="fill:#5c171b; stroke:none;" d="M191 107L192 108L191 107M237 107L238 108L237 107z"/>
<path style="fill:#9d1f27; stroke:none;" d="M238 107L239 108L238 107M242 107L243 108L242 107z"/>
<path style="fill:#731a1f; stroke:none;" d="M243 107L244 108L243 107z"/>
<path style="fill:#5c171b; stroke:none;" d="M248 107L249 108L248 107z"/>
<path style="fill:#9d1f27; stroke:none;" d="M249 107L250 108L249 107M253 107L254 108L253 107z"/>
<path style="fill:#731a1f; stroke:none;" d="M254 107L255 108L254 107z"/>
<path style="fill:#5c171b; stroke:none;" d="M176 108L177 109L176 108z"/>
<path style="fill:#9d1f27; stroke:none;" d="M177 108L178 109L177 108z"/>
<path style="fill:#731a1f; stroke:none;" d="M182 108L183 109L182 108z"/>
<path style="fill:#9d1f27; stroke:none;" d="M183 108L184 109L183 108z"/>
<path style="fill:#731a1f; stroke:none;" d="M188 108L189 109L188 108M240 108L241 109L240 108M245.667 108.333L246.333 108.667L245.667 108.333z"/>
<path style="fill:#9d1f27; stroke:none;" d="M247 108L248 109L247 108M251 108L252 109L251 108z"/>
<path style="fill:#5c171b; stroke:none;" d="M252 108L253 109L252 108M178 109L179 110L178 109z"/>
<path style="fill:#9d1f27; stroke:none;" d="M179 109L180 110L179 109M185 109L186 110L185 109z"/>
<path style="fill:#731a1f; stroke:none;" d="M186 109L187 110L186 109z"/>
<path style="fill:#5c171b; stroke:none;" d="M212 109L213 110L212 109M216 109L217 110L216 109z"/>
<path style="fill:#731a1f; stroke:none;" d="M242 109L243 110L242 109z"/>
<path style="fill:#9d1f27; stroke:none;" d="M243 109L244 110L243 109M249 109L250 110L249 109z"/>
<path style="fill:#5c171b; stroke:none;" d="M250 109L251 110L250 109z"/>
<path style="fill:#731a1f; stroke:none;" d="M181 110L182 111L181 110z"/>
<path style="fill:#5c171b; stroke:none;" d="M184 110L185 111L184 110z"/>
<path style="fill:#731a1f; stroke:none;" d="M210 110L211 111L210 110z"/>
<path style="fill:#9d1f27; stroke:none;" d="M211 110L212 111L211 110M217 110L218 111L217 110z"/>
<path style="fill:#731a1f; stroke:none;" d="M218 110L219 111L218 110z"/>
<path style="fill:#5c171b; stroke:none;" d="M244 110L245 111L244 110z"/>
<path style="fill:#731a1f; stroke:none;" d="M247 110L248 111L247 110M208 111L209 112L208 111z"/>
<path style="fill:#9d1f27; stroke:none;" d="M209 111L210 112L209 111M213 111L214 112L213 111z"/>
<path style="fill:#5c171b; stroke:none;" d="M214 111L215 112L214 111z"/>
<path style="fill:#9d1f27; stroke:none;" d="M215 111L216 112L215 111M219 111L220 112L219 111z"/>
<path style="fill:#731a1f; stroke:none;" d="M220 111L221 112L220 111M206 112L207 113L206 112M211 112L212 113L211 112z"/>
<path style="fill:#431013; stroke:none;" d="M212 112.677C194.014 116.901 198.805 140.113 216 136.822C219.431 136.165 226.015 133.641 227.972 130.606C234.354 120.708 221.29 110.496 212 112.677z"/>
<path style="fill:#5c171b; stroke:none;" d="M216 112L217 113L216 112z"/>
<path style="fill:#9d1f27; stroke:none;" d="M217 112L218 113L217 112z"/>
<path style="fill:#731a1f; stroke:none;" d="M222 112L223 113L222 112z"/>
<path style="fill:#5c171b; stroke:none;" d="M203 113L204 114L203 113z"/>
<path style="fill:#9d1f27; stroke:none;" d="M204 113L205 114L204 113M208 113L209 114L208 113z"/>
<path style="fill:#731a1f; stroke:none;" d="M209 113L210 114L209 113M219 113L220 114L219 113z"/>
<path style="fill:#9d1f27; stroke:none;" d="M224 113L225 114L224 113z"/>
<path style="fill:#5c171b; stroke:none;" d="M225 113L226 114L225 113M201 114L202 115L201 114z"/>
<path style="fill:#9d1f27; stroke:none;" d="M202 114L203 115L202 114M206 114L207 115L206 114z"/>
<path style="fill:#731a1f; stroke:none;" d="M207 114L208 115L207 114M221 114L222 115L221 114z"/>
<path style="fill:#9d1f27; stroke:none;" d="M222 114L223 115L222 114M226 114L227 115L226 114z"/>
<path style="fill:#5c171b; stroke:none;" d="M227 114L228 115L227 114M199 115L200 116L199 115z"/>
<path style="fill:#9d1f27; stroke:none;" d="M200 115L201 116L200 115M204 115L205 116L204 115z"/>
<path style="fill:#5c171b; stroke:none;" d="M205 115L206 116L205 115M223 115L224 116L223 115z"/>
<path style="fill:#9d1f27; stroke:none;" d="M224 115L225 116L224 115M228 115L229 116L228 115z"/>
<path style="fill:#5c171b; stroke:none;" d="M229 115L230 116L229 115z"/>
<path style="fill:#9d1f27; stroke:none;" d="M198 116L199 117L198 116M202 116L203 117L202 116z"/>
<path style="fill:#5c171b; stroke:none;" d="M203 116L204 117L203 116M225 116L226 117L225 116z"/>
<path style="fill:#9d1f27; stroke:none;" d="M226 116L227 117L226 116M230 116L231 117L230 116z"/>
<path style="fill:#731a1f; stroke:none;" d="M197 117L196 132L197 132L197 117M200 117L201 118L200 117z"/>
<path style="fill:#5c171b; stroke:none;" d="M201 117L202 118L201 117M227 117L228 118L227 117z"/>
<path style="fill:#731a1f; stroke:none;" d="M228 117L229 118L228 117M231 117L232 132L233 132L231 117z"/>
<path style="fill:#9d1f27; stroke:none;" d="M199 118L199 131L200 131L199 118M229 118L229 132L230 132L229 118M197 131L198 132L197 131z"/>
<path style="fill:#731a1f; stroke:none;" d="M200 131L201 132L200 131z"/>
<path style="fill:#5c171b; stroke:none;" d="M228 131L229 132L228 131z"/>
<path style="fill:#9d1f27; stroke:none;" d="M231 131L232 132L231 131z"/>
<path style="fill:#731a1f; stroke:none;" d="M194 132L195 133L194 132z"/>
<path style="fill:#9d1f27; stroke:none;" d="M195 132L196 133L195 132z"/>
<path style="fill:#731a1f; stroke:none;" d="M202 132L203 133L202 132M226 132L227 133L226 132z"/>
<path style="fill:#9d1f27; stroke:none;" d="M227 132L229 134L227 132M233 132L234 133L233 132z"/>
<path style="fill:#731a1f; stroke:none;" d="M234 132L235 133L234 132M192 133L193 134L192 133z"/>
<path style="fill:#9d1f27; stroke:none;" d="M193 133L194 134L193 133M197 133L198 134L197 133z"/>
<path style="fill:#5c171b; stroke:none;" d="M198 133L199 134L198 133z"/>
<path style="fill:#731a1f; stroke:none;" d="M199 133L200 134L199 133z"/>
<path style="fill:#9d1f27; stroke:none;" d="M200 133L201 134L200 133z"/>
<path style="fill:#731a1f; stroke:none;" d="M204 133L205 134L204 133z"/>
<path style="fill:#5c171b; stroke:none;" d="M205 133L206 134L205 133z"/>
<path style="fill:#731a1f; stroke:none;" d="M224 133L225 134L224 133z"/>
<path style="fill:#9d1f27; stroke:none;" d="M225 133L227 135L225 133z"/>
<path style="fill:#d02630; stroke:none;" d="M226.667 133.333L227.333 133.667L226.667 133.333z"/>
<path style="fill:#731a1f; stroke:none;" d="M229 133L230 134L229 133z"/>
<path style="fill:#5c171b; stroke:none;" d="M230 133L231 134L230 133z"/>
<path style="fill:#9d1f27; stroke:none;" d="M231 133L232 134L231 133z"/>
<path style="fill:#731a1f; stroke:none;" d="M236 133L237 134L236 133M190 134L191 135L190 134M195 134L196 135L195 134z"/>
<path style="fill:#431013; stroke:none;" d="M186 139L186 140C195.081 142.615 204.562 150.83 214 151.397C221.327 151.838 236.235 143.363 242 139L229 134.434L214.424 139.781L200 134.434L186 139z"/>
<path style="fill:#731a1f; stroke:none;" d="M201 134L202 135L201 134z"/>
<path style="fill:#9d1f27; stroke:none;" d="M202 134L203 135L202 134M206 134L207 135L206 134z"/>
<path style="fill:#5c171b; stroke:none;" d="M207 134L208 135L207 134M221 134L222 135L221 134z"/>
<path style="fill:#731a1f; stroke:none;" d="M222 134L223 135L222 134M227 134L228 135L227 134M233 134L234 135L233 134M238 134L239 135L238 134z"/>
<path style="fill:#5c171b; stroke:none;" d="M239 134L240 135L239 134z"/>
<path style="fill:#731a1f; stroke:none;" d="M188 135L189 136L188 135z"/>
<path style="fill:#9d1f27; stroke:none;" d="M192 135L193 136L192 135z"/>
<path style="fill:#731a1f; stroke:none;" d="M193 135L194 136L193 135z"/>
<path style="fill:#5c171b; stroke:none;" d="M203 135L204 136L203 135z"/>
<path style="fill:#9d1f27; stroke:none;" d="M204 135L205 136L204 135M208 135L209 136L208 135z"/>
<path style="fill:#5c171b; stroke:none;" d="M209 135L210 136L209 135M219 135L220 136L219 135z"/>
<path style="fill:#9d1f27; stroke:none;" d="M220 135L221 136L220 135M224 135L225 136L224 135z"/>
<path style="fill:#5c171b; stroke:none;" d="M225 135L226 136L225 135z"/>
<path style="fill:#731a1f; stroke:none;" d="M235 135L236 136L235 135z"/>
<path style="fill:#9d1f27; stroke:none;" d="M236 135L237 136L236 135M240 135L241 136L240 135z"/>
<path style="fill:#5c171b; stroke:none;" d="M241 135L242 136L241 135z"/>
<path style="fill:#731a1f; stroke:none;" d="M186 136L187 137L186 136z"/>
<path style="fill:#9d1f27; stroke:none;" d="M190 136L191 137L190 136z"/>
<path style="fill:#731a1f; stroke:none;" d="M191 136L192 137L191 136z"/>
<path style="fill:#5c171b; stroke:none;" d="M205 136L206 137L205 136z"/>
<path style="fill:#9d1f27; stroke:none;" d="M206 136L207 137L206 136M210 136L211 137L210 136z"/>
<path style="fill:#5c171b; stroke:none;" d="M211 136L212 137L211 136M217 136L218 137L217 136z"/>
<path style="fill:#9d1f27; stroke:none;" d="M218 136L219 137L218 136M222 136L223 137L222 136z"/>
<path style="fill:#5c171b; stroke:none;" d="M223 136L224 137L223 136z"/>
<path style="fill:#731a1f; stroke:none;" d="M237 136L238 137L237 136z"/>
<path style="fill:#9d1f27; stroke:none;" d="M238 136L239 137L238 136M242 136L243 137L242 136z"/>
<path style="fill:#5c171b; stroke:none;" d="M243 136L244 137L243 136z"/>
<path style="fill:#9d1f27; stroke:none;" d="M184 137L185 138L184 137M188 137L189 138L188 137z"/>
<path style="fill:#5c171b; stroke:none;" d="M189 137L190 138L189 137M207 137L208 138L207 137z"/>
<path style="fill:#9d1f27; stroke:none;" d="M208 137L209 138L208 137M212 137L213 138L212 137z"/>
<path style="fill:#5c171b; stroke:none;" d="M213 137L214 138L213 137z"/>
<path style="fill:#731a1f; stroke:none;" d="M215 137L216 138L215 137z"/>
<path style="fill:#9d1f27; stroke:none;" d="M216 137L217 138L216 137M220 137L221 138L220 137z"/>
<path style="fill:#5c171b; stroke:none;" d="M221 137L222 138L221 137M239 137L240 138L239 137z"/>
<path style="fill:#9d1f27; stroke:none;" d="M240 137L241 138L240 137M244 137L245 138L244 137M186 138L187 139L186 138z"/>
<path style="fill:#5c171b; stroke:none;" d="M187 138L188 139L187 138M209 138L210 139L209 138z"/>
<path style="fill:#731a1f; stroke:none;" d="M210 138L211 139L210 138M218 138L219 139L218 138z"/>
<path style="fill:#5c171b; stroke:none;" d="M219 138L220 139L219 138M241 138L242 139L241 138z"/>
<path style="fill:#9d1f27; stroke:none;" d="M242 138L244 140L242 138z"/>
<path style="fill:#731a1f; stroke:none;" d="M185 139L186 140L185 139M212 139L213 140L212 139M216 139L217 140L216 139M242 139L243 140L242 139z"/>
<path style="fill:#9d1f27; stroke:none;" d="M246 139L247 140L246 139z"/>
<path style="fill:#731a1f; stroke:none;" d="M182 140L183 141L182 140z"/>
<path style="fill:#9d1f27; stroke:none;" d="M187 140L188 141L187 140z"/>
<path style="fill:#5c171b; stroke:none;" d="M188 140L189 141L188 140M214 140L215 141L214 140z"/>
<path style="fill:#731a1f; stroke:none;" d="M240 140L241 141L240 140M245 140L246 141L245 140z"/>
<path style="fill:#5c171b; stroke:none;" d="M246 140L247 141L246 140z"/>
<path style="fill:#731a1f; stroke:none;" d="M184 141L185 142L184 141z"/>
<path style="fill:#9d1f27; stroke:none;" d="M185 141L186 142L185 141M189 141L190 142L189 141z"/>
<path style="fill:#5c171b; stroke:none;" d="M190 141L191 142L190 141M237 141L238 142L237 141z"/>
<path style="fill:#9d1f27; stroke:none;" d="M238 141L239 142L238 141z"/>
<path style="fill:#731a1f; stroke:none;" d="M243 141L244 142L243 141z"/>
<path style="fill:#5c171b; stroke:none;" d="M186 142L187 143L186 142z"/>
<path style="fill:#9d1f27; stroke:none;" d="M187 142L188 143L187 142M191 142L192 143L191 142z"/>
<path style="fill:#731a1f; stroke:none;" d="M192 142L193 143L192 142z"/>
<path style="fill:#5c171b; stroke:none;" d="M235 142L236 143L235 142z"/>
<path style="fill:#9d1f27; stroke:none;" d="M236 142L237 143L236 142M240 142L241 143L240 142z"/>
<path style="fill:#731a1f; stroke:none;" d="M241 142L242 143L241 142z"/>
<path style="fill:#5c171b; stroke:none;" d="M188 143L189 144L188 143z"/>
<path style="fill:#9d1f27; stroke:none;" d="M189 143L190 144L189 143M193 143L194 144L193 143z"/>
<path style="fill:#731a1f; stroke:none;" d="M194 143L195 144L194 143z"/>
<path style="fill:#5c171b; stroke:none;" d="M233 143L234 144L233 143z"/>
<path style="fill:#9d1f27; stroke:none;" d="M234 143L235 144L234 143M238 143L239 144L238 143z"/>
<path style="fill:#731a1f; stroke:none;" d="M239 143L240 144L239 143z"/>
<path style="fill:#5c171b; stroke:none;" d="M190 144L191 145L190 144z"/>
<path style="fill:#731a1f; stroke:none;" d="M191 144L192 145L191 144M196 144L197 145L196 144z"/>
<path style="fill:#5c171b; stroke:none;" d="M197 144L198 145L197 144z"/>
<path style="fill:#731a1f; stroke:none;" d="M231 144L232 145L231 144z"/>
<path style="fill:#9d1f27; stroke:none;" d="M232 144L233 145L232 144M236 144L237 145L236 144z"/>
<path style="fill:#5c171b; stroke:none;" d="M237 144L238 145L237 144z"/>
<path style="fill:#731a1f; stroke:none;" d="M193 145L194 146L193 145z"/>
<path style="fill:#9d1f27; stroke:none;" d="M194 145L195 146L194 145M198 145L199 146L198 145z"/>
<path style="fill:#5c171b; stroke:none;" d="M199 145L200 146L199 145z"/>
<path style="fill:#731a1f; stroke:none;" d="M229 145L230 146L229 145z"/>
<path style="fill:#9d1f27; stroke:none;" d="M230 145L231 146L230 145M234 145L235 146L234 145z"/>
<path style="fill:#5c171b; stroke:none;" d="M235 145L236 146L235 145z"/>
<path style="fill:#731a1f; stroke:none;" d="M195 146L196 147L195 146z"/>
<path style="fill:#9d1f27; stroke:none;" d="M196 146L197 147L196 146M200 146L201 147L200 146z"/>
<path style="fill:#5c171b; stroke:none;" d="M201 146L202 147L201 146z"/>
<path style="fill:#731a1f; stroke:none;" d="M227 146L228 147L227 146z"/>
<path style="fill:#9d1f27; stroke:none;" d="M232 146L233 147L232 146z"/>
<path style="fill:#5c171b; stroke:none;" d="M233 146L234 147L233 146z"/>
<path style="fill:#731a1f; stroke:none;" d="M259 146L260 147L259 146z"/>
<path style="fill:#5c171b; stroke:none;" d="M197 147L198 148L197 147z"/>
<path style="fill:#9d1f27; stroke:none;" d="M198 147L199 148L198 147M202 147L203 148L202 147z"/>
<path style="fill:#731a1f; stroke:none;" d="M203 147L204 148L203 147z"/>
<path style="fill:#5c171b; stroke:none;" d="M224 147L225 148L224 147z"/>
<path style="fill:#9d1f27; stroke:none;" d="M225 147L226 148L225 147z"/>
<path style="fill:#731a1f; stroke:none;" d="M230 147L231 148L230 147z"/>
<path style="fill:#5c171b; stroke:none;" d="M256 147L257 148L256 147z"/>
<path style="fill:#731a1f; stroke:none;" d="M257 147L258 148L257 147z"/>
<path style="fill:#5c171b; stroke:none;" d="M262 147L263 148L262 147M199 148L200 149L199 148z"/>
<path style="fill:#9d1f27; stroke:none;" d="M200 148L201 149L200 148z"/>
<path style="fill:#731a1f; stroke:none;" d="M205 148L206 149L205 148z"/>
<path style="fill:#5c171b; stroke:none;" d="M222 148L223 149L222 148z"/>
<path style="fill:#9d1f27; stroke:none;" d="M223 148L224 149L223 148M227 148L228 149L227 148z"/>
<path style="fill:#731a1f; stroke:none;" d="M228 148L229 149L228 148z"/>
<path style="fill:#5c171b; stroke:none;" d="M254 148L255 149L254 148z"/>
<path style="fill:#9d1f27; stroke:none;" d="M255 148L256 149L255 148M259 148L260 149L259 148z"/>
<path style="fill:#5c171b; stroke:none;" d="M260 148L261 149L260 148z"/>
<path style="fill:#731a1f; stroke:none;" d="M202 149L203 150L202 149M207 149L208 150L207 149z"/>
<path style="fill:#5c171b; stroke:none;" d="M208 149L209 150L208 149M220 149L221 150L220 149z"/>
<path style="fill:#9d1f27; stroke:none;" d="M221 149L222 150L221 149M225 149L226 150L225 149z"/>
<path style="fill:#731a1f; stroke:none;" d="M226 149L227 150L226 149M252 149L253 150L252 149z"/>
<path style="fill:#9d1f27; stroke:none;" d="M253 149L254 150L253 149M257 149L258 150L257 149z"/>
<path style="fill:#5c171b; stroke:none;" d="M258 149L259 150L258 149z"/>
<path style="fill:#731a1f; stroke:none;" d="M204 150L205 151L204 150z"/>
<path style="fill:#9d1f27; stroke:none;" d="M205 150L206 151L205 150M209 150L210 151L209 150z"/>
<path style="fill:#5c171b; stroke:none;" d="M210 150L211 151L210 150z"/>
<path style="fill:#731a1f; stroke:none;" d="M218 150L219 151L218 150z"/>
<path style="fill:#9d1f27; stroke:none;" d="M219 150L220 151L219 150M223 150L224 151L223 150z"/>
<path style="fill:#5c171b; stroke:none;" d="M224 150L225 151L224 150z"/>
<path style="fill:#731a1f; stroke:none;" d="M250 150L251 151L250 150z"/>
<path style="fill:#9d1f27; stroke:none;" d="M251 150L252 151L251 150M255 150L256 151L255 150z"/>
<path style="fill:#5c171b; stroke:none;" d="M256 150L257 151L256 150M206 151L207 152L206 151z"/>
<path style="fill:#9d1f27; stroke:none;" d="M207 151L208 152L207 151M211 151L212 152L211 151z"/>
<path style="fill:#5c171b; stroke:none;" d="M212 151L213 152L212 151z"/>
<path style="fill:#731a1f; stroke:none;" d="M216 151L217 152L216 151z"/>
<path style="fill:#9d1f27; stroke:none;" d="M217 151L218 152L217 151M221 151L222 152L221 151z"/>
<path style="fill:#5c171b; stroke:none;" d="M222 151L223 152L222 151z"/>
<path style="fill:#731a1f; stroke:none;" d="M248 151L249 152L248 151M253 151L254 152L253 151z"/>
<path style="fill:#5c171b; stroke:none;" d="M254 151L255 152L254 151M208 152L209 153L208 152z"/>
<path style="fill:#9d1f27; stroke:none;" d="M209 152L210 153L209 152M213 152L214 153L213 152z"/>
<path style="fill:#731a1f; stroke:none;" d="M214 152L215 153L214 152z"/>
<path style="fill:#9d1f27; stroke:none;" d="M219 152L220 153L219 152z"/>
<path style="fill:#5c171b; stroke:none;" d="M220 152L221 153L220 152M245 152L246 153L245 152z"/>
<path style="fill:#9d1f27; stroke:none;" d="M246 152L247 153L246 152z"/>
<path style="fill:#731a1f; stroke:none;" d="M251 152L252 153L251 152z"/>
<path style="fill:#9d1f27; stroke:none;" d="M184 153L185 154L184 153z"/>
<path style="fill:#5c171b; stroke:none;" d="M185 153L186 154L185 153M210 153L211 154L210 153z"/>
<path style="fill:#731a1f; stroke:none;" d="M211 153L212 154L211 153M217 153L218 154L217 153z"/>
<path style="fill:#9d1f27; stroke:none;" d="M245.333 153.667L245.667 154.333L245.333 153.667M248 153L249 154L248 153z"/>
<path style="fill:#731a1f; stroke:none;" d="M249 153L250 154L249 153z"/>
<path style="fill:#9d1f27; stroke:none;" d="M186 154L187 155L186 154z"/>
<path style="fill:#5c171b; stroke:none;" d="M187 154L188 155L187 154z"/>
<path style="fill:#9d1f27; stroke:none;" d="M213 154L212 167C215.156 164.242 214.53 157.647 213 154M215 154L217 167L215 154z"/>
<path style="fill:#731a1f; stroke:none;" d="M247 154L248 155L247 154z"/>
<path style="fill:#9d1f27; stroke:none;" d="M184 155L185 156L184 155M188 155L189 156L188 155z"/>
<path style="fill:#731a1f; stroke:none;" d="M189 155L190 156L189 155M245 155L246 156L245 155z"/>
<path style="fill:#9d1f27; stroke:none;" d="M247 155L248 156L247 155z"/>
<path style="fill:#431013; stroke:none;" d="M184 156L184 210C187.531 208.53 193.735 206.766 195.972 203.502C197.688 200.999 197 196.865 197 194C197.001 186.165 200.23 169.066 195.972 162.39C193.715 158.851 187.809 157.097 184 156z"/>
<path style="fill:#731a1f; stroke:none;" d="M186 156L187 157L186 156z"/>
<path style="fill:#9d1f27; stroke:none;" d="M190 156L191 157L190 156z"/>
<path style="fill:#731a1f; stroke:none;" d="M191 156L192 157L191 156M188 157L189 158L188 157z"/>
<path style="fill:#9d1f27; stroke:none;" d="M189 157L190 158L189 157z"/>
<path style="fill:#731a1f; stroke:none;" d="M193 157L194 158L193 157z"/>
<path style="fill:#9d1f27; stroke:none;" d="M246 157L247 158L246 157z"/>
<path style="fill:#5c171b; stroke:none;" d="M248 157L249 158L248 157z"/>
<path style="fill:#731a1f; stroke:none;" d="M190 158L191 159L190 158z"/>
<path style="fill:#9d1f27; stroke:none;" d="M191 158L192 159L191 158M195 158L196 159L195 158z"/>
<path style="fill:#5c171b; stroke:none;" d="M196 158L197 159L196 158z"/>
<path style="fill:#731a1f; stroke:none;" d="M246 158L247 159L246 158M248 158L249 159L248 158z"/>
<path style="fill:#5c171b; stroke:none;" d="M192 159L193 160L192 159z"/>
<path style="fill:#9d1f27; stroke:none;" d="M193 159L194 160L193 159M197 159L198 160L197 159z"/>
<path style="fill:#5c171b; stroke:none;" d="M198 159L199 160L198 159z"/>
<path style="fill:#9d1f27; stroke:none;" d="M248 159L249 160L248 159z"/>
<path style="fill:#5c171b; stroke:none;" d="M194 160L195 161L194 160z"/>
<path style="fill:#9d1f27; stroke:none;" d="M195 160L196 161L195 160M199 160L200 161L199 160z"/>
<path style="fill:#5c171b; stroke:none;" d="M200 160L201 161L200 160M228 160L229 161L228 160z"/>
<path style="fill:#9d1f27; stroke:none;" d="M229 160L230 161L229 160z"/>
<path style="fill:#5c171b; stroke:none;" d="M231 160L232 161L231 160M249 160L250 161L249 160M196 161L197 162L196 161z"/>
<path style="fill:#9d1f27; stroke:none;" d="M197 161L198 162L197 161M201 161L202 162L201 161z"/>
<path style="fill:#731a1f; stroke:none;" d="M202 161L203 162L202 161z"/>
<path style="fill:#5c171b; stroke:none;" d="M226 161L227 162L226 161z"/>
<path style="fill:#9d1f27; stroke:none;" d="M227 161L230 163L230 162L227 161z"/>
<path style="fill:#731a1f; stroke:none;" d="M231 161L232 162L231 161M247 161L248 162L247 161M249 161L250 162L249 161M197 162L197 204L198 204C198 192.043 201.611 172.988 197 162z"/>
<path style="fill:#9d1f27; stroke:none;" d="M199 162L198 206L199 206C201.939 196.057 203.019 171.578 199 162M203 162L204 163L203 162z"/>
<path style="fill:#731a1f; stroke:none;" d="M204 162L205 163L204 162M224 162L225 163L224 162z"/>
<path style="fill:#9d1f27; stroke:none;" d="M225 162L227 164L225 162z"/>
<path style="fill:#d02630; stroke:none;" d="M226.667 162.333L227.333 162.667L226.667 162.333z"/>
<path style="fill:#9d1f27; stroke:none;" d="M231 162L232 163L231 162z"/>
<path style="fill:#5c171b; stroke:none;" d="M247 162L248 163L247 162z"/>
<path style="fill:#9d1f27; stroke:none;" d="M249 162L250 163L249 162z"/>
<path style="fill:#731a1f; stroke:none;" d="M201 163L202 164L201 163z"/>
<path style="fill:#9d1f27; stroke:none;" d="M202 163L203 164L202 163z"/>
<path style="fill:#731a1f; stroke:none;" d="M206 163L207 164L206 163M222 163L223 164L222 163M227 163L228 164L227 163z"/>
<path style="fill:#431013; stroke:none;" d="M220 167C225.296 183.281 226.069 202.894 244 209L230 163L220 167z"/>
<path style="fill:#5c171b; stroke:none;" d="M250 163L251 164L250 163z"/>
<path style="fill:#731a1f; stroke:none;" d="M203 164L204 165L203 164z"/>
<path style="fill:#9d1f27; stroke:none;" d="M204 164L205 165L204 164z"/>
<path style="fill:#731a1f; stroke:none;" d="M208 164L209 165L208 164z"/>
<path style="fill:#5c171b; stroke:none;" d="M209 164L210 165L209 164M219 164L220 165L219 164z"/>
<path style="fill:#731a1f; stroke:none;" d="M220 164L221 165L220 164z"/>
<path style="fill:#9d1f27; stroke:none;" d="M224 164L225 165L224 164z"/>
<path style="fill:#5c171b; stroke:none;" d="M225 164L226 165L225 164z"/>
<path style="fill:#9d1f27; stroke:none;" d="M230 164L231 165L230 164z"/>
<path style="fill:#731a1f; stroke:none;" d="M232 164L233 165L232 164z"/>
<path style="fill:#9d1f27; stroke:none;" d="M248 164L249 165L248 164z"/>
<path style="fill:#731a1f; stroke:none;" d="M250 164L251 165L250 164z"/>
<path style="fill:#5c171b; stroke:none;" d="M205 165L206 166L205 165z"/>
<path style="fill:#9d1f27; stroke:none;" d="M206 165L207 166L206 165M210 165L211 166L210 165z"/>
<path style="fill:#5c171b; stroke:none;" d="M211 165L212 166L211 165M217 165L218 166L217 165z"/>
<path style="fill:#9d1f27; stroke:none;" d="M218 165L219 166L218 165M222 165L223 166L222 165z"/>
<path style="fill:#5c171b; stroke:none;" d="M223 165L224 166L223 165z"/>
<path style="fill:#731a1f; stroke:none;" d="M230 165L231 166L230 165z"/>
<path style="fill:#9d1f27; stroke:none;" d="M232 165L233 166L232 165z"/>
<path style="fill:#5c171b; stroke:none;" d="M248 165L249 166L248 165z"/>
<path style="fill:#9d1f27; stroke:none;" d="M250 165L251 166L250 165z"/>
<path style="fill:#5c171b; stroke:none;" d="M207 166L208 167L207 166z"/>
<path style="fill:#9d1f27; stroke:none;" d="M208 166L209 167L208 166M220 166L221 167L220 166z"/>
<path style="fill:#5c171b; stroke:none;" d="M221 166L222 167L221 166M230 166L231 167L230 166M209 167L210 168L209 167z"/>
<path style="fill:#731a1f; stroke:none;" d="M210 167L211 168L210 167z"/>
<path style="fill:#9d1f27; stroke:none;" d="M231 167L232 168L231 167z"/>
<path style="fill:#5c171b; stroke:none;" d="M233 167L234 168L233 167z"/>
<path style="fill:#9d1f27; stroke:none;" d="M249 167L250 168L249 167z"/>
<path style="fill:#731a1f; stroke:none;" d="M251 167L252 168L251 167M212 168L213 169L212 168z"/>
<path style="fill:#9d1f27; stroke:none;" d="M215 168L216 169L215 168z"/>
<path style="fill:#731a1f; stroke:none;" d="M216 168L217 169L216 168z"/>
<path style="fill:#5c171b; stroke:none;" d="M220 168L221 169L220 168z"/>
<path style="fill:#731a1f; stroke:none;" d="M231 168L232 169L231 168z"/>
<path style="fill:#9d1f27; stroke:none;" d="M233 168L234 169L233 168z"/>
<path style="fill:#731a1f; stroke:none;" d="M249 168L250 169L249 168z"/>
<path style="fill:#9d1f27; stroke:none;" d="M251 168L252 169L251 168z"/>
<path style="fill:#5c171b; stroke:none;" d="M214 169L215 170L214 169z"/>
<path style="fill:#9d1f27; stroke:none;" d="M218 169L219 170L218 169z"/>
<path style="fill:#731a1f; stroke:none;" d="M220 169L221 170L220 169z"/>
<path style="fill:#5c171b; stroke:none;" d="M231 169L232 170L231 169z"/>
<path style="fill:#731a1f; stroke:none;" d="M218 170L219 171L218 170z"/>
<path style="fill:#5c171b; stroke:none;" d="M234 170L235 171L234 170z"/>
<path style="fill:#9d1f27; stroke:none;" d="M250 170L251 171L250 170z"/>
<path style="fill:#731a1f; stroke:none;" d="M252 170L253 171L252 170z"/>
<path style="fill:#5c171b; stroke:none;" d="M218 171L219 172L218 171M221 171L222 172L221 171z"/>
<path style="fill:#731a1f; stroke:none;" d="M232 171L233 172L232 171z"/>
<path style="fill:#9d1f27; stroke:none;" d="M234 171L235 172L234 171z"/>
<path style="fill:#731a1f; stroke:none;" d="M250 171L251 172L250 171z"/>
<path style="fill:#9d1f27; stroke:none;" d="M252 171L253 172L252 171M219 172L220 173L219 172z"/>
<path style="fill:#731a1f; stroke:none;" d="M221 172L222 173L221 172z"/>
<path style="fill:#5c171b; stroke:none;" d="M232 172L233 173L232 172M250 172L251 173L250 172z"/>
<path style="fill:#731a1f; stroke:none;" d="M219 173L220 174L219 173z"/>
<path style="fill:#9d1f27; stroke:none;" d="M221 173L222 174L221 173z"/>
<path style="fill:#5c171b; stroke:none;" d="M235 173L236 174L235 173z"/>
<path style="fill:#9d1f27; stroke:none;" d="M251 173L252 174L251 173z"/>
<path style="fill:#5c171b; stroke:none;" d="M253 173L254 174L253 173M219 174L220 175L219 174M222 174L223 175L222 174z"/>
<path style="fill:#9d1f27; stroke:none;" d="M233 174L234 175L233 174z"/>
<path style="fill:#731a1f; stroke:none;" d="M235 174L236 175L235 174M251 174L252 175L251 174M253 174L254 175L253 174M222 175L223 176L222 175z"/>
<path style="fill:#5c171b; stroke:none;" d="M233 175L234 176L233 175M251 175L252 176L251 175z"/>
<path style="fill:#9d1f27; stroke:none;" d="M253 175L254 176L253 175z"/>
<path style="fill:#731a1f; stroke:none;" d="M220 176L221 177L220 176z"/>
<path style="fill:#9d1f27; stroke:none;" d="M222 176L223 177L222 176z"/>
<path style="fill:#5c171b; stroke:none;" d="M236 176L237 177L236 176z"/>
<path style="fill:#9d1f27; stroke:none;" d="M252.333 176.667L252.667 177.333L252.333 176.667z"/>
<path style="fill:#5c171b; stroke:none;" d="M254 176L255 177L254 176M220 177L221 178L220 177z"/>
<path style="fill:#9d1f27; stroke:none;" d="M234 177L235 178L234 177z"/>
<path style="fill:#731a1f; stroke:none;" d="M236 177L237 178L236 177M254 177L255 178L254 177M223 178L224 179L223 178M234 178L235 179L234 178z"/>
<path style="fill:#9d1f27; stroke:none;" d="M236 178L237 179L236 178z"/>
<path style="fill:#5c171b; stroke:none;" d="M252 178L253 179L252 178z"/>
<path style="fill:#9d1f27; stroke:none;" d="M254 178L255 179L254 178M221 179L222 180L221 179M223 179L224 180L223 179z"/>
<path style="fill:#5c171b; stroke:none;" d="M237 179L238 180L237 179M255 179L256 180L255 179M221 180L222 181L221 180z"/>
<path style="fill:#9d1f27; stroke:none;" d="M235 180L236 181L235 180z"/>
<path style="fill:#731a1f; stroke:none;" d="M237 180L238 181L237 180z"/>
<path style="fill:#9d1f27; stroke:none;" d="M253 180L254 181L253 180z"/>
<path style="fill:#731a1f; stroke:none;" d="M255 180L256 181L255 180z"/>
<path style="fill:#5c171b; stroke:none;" d="M224 181L225 182L224 181z"/>
<path style="fill:#731a1f; stroke:none;" d="M235 181L236 182L235 181z"/>
<path style="fill:#9d1f27; stroke:none;" d="M237 181L238 182L237 181z"/>
<path style="fill:#731a1f; stroke:none;" d="M253 181L254 182L253 181z"/>
<path style="fill:#9d1f27; stroke:none;" d="M255 181L256 182L255 181M222 182L223 183L222 182M224 182L225 183L224 182z"/>
<path style="fill:#5c171b; stroke:none;" d="M256 182L257 183L256 182z"/>
<path style="fill:#731a1f; stroke:none;" d="M222 183L223 184L222 183z"/>
<path style="fill:#9d1f27; stroke:none;" d="M236 183L237 184L236 183z"/>
<path style="fill:#731a1f; stroke:none;" d="M238 183L239 184L238 183z"/>
<path style="fill:#9d1f27; stroke:none;" d="M254 183L255 184L254 183z"/>
<path style="fill:#731a1f; stroke:none;" d="M256 183L257 184L256 183z"/>
<path style="fill:#5c171b; stroke:none;" d="M225 184L226 185L225 184z"/>
<path style="fill:#731a1f; stroke:none;" d="M236 184L237 185L236 184z"/>
<path style="fill:#9d1f27; stroke:none;" d="M238 184L239 185L238 184z"/>
<path style="fill:#731a1f; stroke:none;" d="M254 184L255 185L254 184z"/>
<path style="fill:#9d1f27; stroke:none;" d="M256 184L257 185L256 184M223 185L224 186L223 185z"/>
<path style="fill:#731a1f; stroke:none;" d="M225 185L226 186L225 185z"/>
<path style="fill:#5c171b; stroke:none;" d="M236 185L237 186L236 185M254 185L255 186L254 185z"/>
<path style="fill:#731a1f; stroke:none;" d="M223 186L224 187L223 186z"/>
<path style="fill:#9d1f27; stroke:none;" d="M225 186L226 187L225 186M237 186L238 187L237 186z"/>
<path style="fill:#5c171b; stroke:none;" d="M239 186L240 187L239 186z"/>
<path style="fill:#9d1f27; stroke:none;" d="M255 186L256 187L255 186z"/>
<path style="fill:#731a1f; stroke:none;" d="M257 186L258 187L257 186z"/>
<path style="fill:#5c171b; stroke:none;" d="M223 187L224 188L223 187M226 187L227 188L226 187z"/>
<path style="fill:#731a1f; stroke:none;" d="M237 187L238 188L237 187z"/>
<path style="fill:#9d1f27; stroke:none;" d="M239 187L240 188L239 187z"/>
<path style="fill:#731a1f; stroke:none;" d="M255 187L256 188L255 187z"/>
<path style="fill:#9d1f27; stroke:none;" d="M257 187L258 188L257 187M224 188L225 189L224 188z"/>
<path style="fill:#731a1f; stroke:none;" d="M226 188L227 189L226 188z"/>
<path style="fill:#5c171b; stroke:none;" d="M237 188L238 189L237 188M255 188L256 189L255 188z"/>
<path style="fill:#731a1f; stroke:none;" d="M224 189L225 190L224 189z"/>
<path style="fill:#9d1f27; stroke:none;" d="M226 189L227 190L226 189z"/>
<path style="fill:#5c171b; stroke:none;" d="M240 189L241 190L240 189M258 189L259 190L258 189M224 190L225 191L224 190z"/>
<path style="fill:#731a1f; stroke:none;" d="M238 190L239 191L238 190M240 190L241 191L240 190M256 190L257 191L256 190z"/>
<path style="fill:#9d1f27; stroke:none;" d="M258 190L259 191L258 190z"/>
<path style="fill:#731a1f; stroke:none;" d="M227 191L228 192L227 191z"/>
<path style="fill:#5c171b; stroke:none;" d="M238 191L239 192L238 191M256 191L257 192L256 191z"/>
<path style="fill:#731a1f; stroke:none;" d="M225 192L226 193L225 192z"/>
<path style="fill:#9d1f27; stroke:none;" d="M227 192L228 193L227 192z"/>
<path style="fill:#5c171b; stroke:none;" d="M241 192L242 193L241 192M259 192L260 193L259 192M225 193L226 194L225 193z"/>
<path style="fill:#9d1f27; stroke:none;" d="M239 193L240 194L239 193z"/>
<path style="fill:#731a1f; stroke:none;" d="M241 193L242 194L241 193z"/>
<path style="fill:#9d1f27; stroke:none;" d="M257 193L258 194L257 193z"/>
<path style="fill:#731a1f; stroke:none;" d="M259 193L260 194L259 193z"/>
<path style="fill:#5c171b; stroke:none;" d="M228 194L229 195L228 194M239 194L240 195L239 194z"/>
<path style="fill:#9d1f27; stroke:none;" d="M241 194L242 195L241 194z"/>
<path style="fill:#5c171b; stroke:none;" d="M257 194L258 195L257 194z"/>
<path style="fill:#9d1f27; stroke:none;" d="M226 195L227 196L226 195M228 195L229 196L228 195z"/>
<path style="fill:#5c171b; stroke:none;" d="M242 195L243 196L242 195M260 195L261 196L260 195M226 196L227 197L226 196z"/>
<path style="fill:#9d1f27; stroke:none;" d="M240 196L241 197L240 196z"/>
<path style="fill:#731a1f; stroke:none;" d="M242 196L243 197L242 196z"/>
<path style="fill:#9d1f27; stroke:none;" d="M258 196L259 197L258 196z"/>
<path style="fill:#731a1f; stroke:none;" d="M260 196L261 197L260 196z"/>
<path style="fill:#5c171b; stroke:none;" d="M229 197L230 198L229 197z"/>
<path style="fill:#731a1f; stroke:none;" d="M240 197L241 198L240 197z"/>
<path style="fill:#9d1f27; stroke:none;" d="M242 197L243 198L242 197z"/>
<path style="fill:#731a1f; stroke:none;" d="M258 197L259 198L258 197z"/>
<path style="fill:#9d1f27; stroke:none;" d="M260 197L261 198L260 197M227 198L228 199L227 198z"/>
<path style="fill:#731a1f; stroke:none;" d="M229 198L230 199L229 198z"/>
<path style="fill:#5c171b; stroke:none;" d="M261 198L262 199L261 198z"/>
<path style="fill:#731a1f; stroke:none;" d="M227 199L228 200L227 199z"/>
<path style="fill:#9d1f27; stroke:none;" d="M241 199L242 200L241 199z"/>
<path style="fill:#731a1f; stroke:none;" d="M243 199L244 200L243 199z"/>
<path style="fill:#9d1f27; stroke:none;" d="M259 199L260 200L259 199z"/>
<path style="fill:#731a1f; stroke:none;" d="M261 199L262 200L261 199z"/>
<path style="fill:#5c171b; stroke:none;" d="M230 200L231 201L230 200z"/>
<path style="fill:#731a1f; stroke:none;" d="M241 200L242 201L241 200z"/>
<path style="fill:#9d1f27; stroke:none;" d="M243 200L244 201L243 200z"/>
<path style="fill:#731a1f; stroke:none;" d="M259 200L260 201L259 200z"/>
<path style="fill:#9d1f27; stroke:none;" d="M261 200L262 201L261 200M228 201L229 202L228 201z"/>
<path style="fill:#731a1f; stroke:none;" d="M230 201L231 202L230 201z"/>
<path style="fill:#5c171b; stroke:none;" d="M241 201L242 202L241 201M259 201L260 202L259 201z"/>
<path style="fill:#731a1f; stroke:none;" d="M228 202L229 203L228 202z"/>
<path style="fill:#9d1f27; stroke:none;" d="M230 202L231 203L230 202M242 202L243 203L242 202z"/>
<path style="fill:#731a1f; stroke:none;" d="M244 202L245 203L244 202z"/>
<path style="fill:#9d1f27; stroke:none;" d="M260 202L261 203L260 202z"/>
<path style="fill:#731a1f; stroke:none;" d="M262 202L263 203L262 202z"/>
<path style="fill:#5c171b; stroke:none;" d="M228 203L229 204L228 203M231 203L232 204L231 203z"/>
<path style="fill:#731a1f; stroke:none;" d="M242 203L243 204L242 203z"/>
<path style="fill:#9d1f27; stroke:none;" d="M244 203L245 204L244 203z"/>
<path style="fill:#731a1f; stroke:none;" d="M260 203L261 204L260 203z"/>
<path style="fill:#9d1f27; stroke:none;" d="M262.333 203.667L262.667 204.333L262.333 203.667M168 204L169 205L168 204z"/>
<path style="fill:#731a1f; stroke:none;" d="M169 204L170 205L169 204M196 204L197 205L196 204z"/>
<path style="fill:#9d1f27; stroke:none;" d="M229 204L231 206L229 204M232 204L233 205L232 204z"/>
<path style="fill:#5c171b; stroke:none;" d="M233 204L234 205L233 204M242 204L243 205L242 204z"/>
<path style="fill:#731a1f; stroke:none;" d="M259 204L260 205L259 204z"/>
<path style="fill:#5c171b; stroke:none;" d="M166 205L167 206L166 205z"/>
<path style="fill:#731a1f; stroke:none;" d="M171 205L172 206L171 205z"/>
<path style="fill:#5c171b; stroke:none;" d="M193 205L194 206L193 205z"/>
<path style="fill:#731a1f; stroke:none;" d="M194 205L195 206L194 205z"/>
<path style="fill:#5c171b; stroke:none;" d="M199 205L200 206L199 205M229 205L230 206L229 205z"/>
<path style="fill:#9d1f27; stroke:none;" d="M234 205L235 206L234 205z"/>
<path style="fill:#5c171b; stroke:none;" d="M235 205L236 206L235 205M245 205L246 206L245 205M256 205L257 206L256 205z"/>
<path style="fill:#9d1f27; stroke:none;" d="M257 205L258 206L257 205z"/>
<path style="fill:#5c171b; stroke:none;" d="M262 205L263 206L262 205M168 206L169 207L168 206z"/>
<path style="fill:#9d1f27; stroke:none;" d="M169 206L170 207L169 206M173 206L174 207L173 206z"/>
<path style="fill:#5c171b; stroke:none;" d="M174 206L175 207L174 206M191 206L192 207L191 206z"/>
<path style="fill:#9d1f27; stroke:none;" d="M192 206L193 207L192 206z"/>
<path style="fill:#731a1f; stroke:none;" d="M196 206L197 207L196 206z"/>
<path style="fill:#5c171b; stroke:none;" d="M197 206L198 207L197 206M231 206L232 207L231 206z"/>
<path style="fill:#9d1f27; stroke:none;" d="M232 206L233 207L232 206M236 206L237 207L236 206z"/>
<path style="fill:#731a1f; stroke:none;" d="M237 206L238 207L237 206M243 206L244 207L243 206z"/>
<path style="fill:#9d1f27; stroke:none;" d="M245 206L246 207L245 206z"/>
<path style="fill:#5c171b; stroke:none;" d="M254 206L255 207L254 206z"/>
<path style="fill:#9d1f27; stroke:none;" d="M255 206L256 207L255 206M259 206L260 207L259 206z"/>
<path style="fill:#731a1f; stroke:none;" d="M260 206L261 207L260 206z"/>
<path style="fill:#5c171b; stroke:none;" d="M170 207L171 208L170 207z"/>
<path style="fill:#9d1f27; stroke:none;" d="M171 207L172 208L171 207M175 207L176 208L175 207z"/>
<path style="fill:#5c171b; stroke:none;" d="M176 207L177 208L176 207M189 207L190 208L189 207z"/>
<path style="fill:#9d1f27; stroke:none;" d="M190 207L191 208L190 207z"/>
<path style="fill:#731a1f; stroke:none;" d="M194 207L195 208L194 207z"/>
<path style="fill:#5c171b; stroke:none;" d="M195 207L196 208L195 207M233 207L234 208L233 207z"/>
<path style="fill:#731a1f; stroke:none;" d="M234 207L235 208L234 207M239 207L240 208L239 207z"/>
<path style="fill:#5c171b; stroke:none;" d="M243 207L244 208L243 207z"/>
<path style="fill:#731a1f; stroke:none;" d="M252 207L253 208L252 207z"/>
<path style="fill:#9d1f27; stroke:none;" d="M253 207L254 208L253 207M257 207L258 208L257 207z"/>
<path style="fill:#5c171b; stroke:none;" d="M258 207L259 208L258 207z"/>
<path style="fill:#731a1f; stroke:none;" d="M173 208L174 209L173 208z"/>
<path style="fill:#9d1f27; stroke:none;" d="M177 208L178 209L177 208z"/>
<path style="fill:#5c171b; stroke:none;" d="M178 208L179 209L178 208z"/>
<path style="fill:#731a1f; stroke:none;" d="M187 208L188 209L187 208z"/>
<path style="fill:#9d1f27; stroke:none;" d="M188 208L189 209L188 208z"/>
<path style="fill:#731a1f; stroke:none;" d="M192 208L193 209L192 208M236 208L237 209L236 208M241 208L242 209L241 208z"/>
<path style="fill:#5c171b; stroke:none;" d="M242 208L243 209L242 208M246 208L247 209L246 208z"/>
<path style="fill:#731a1f; stroke:none;" d="M250 208L251 209L250 208z"/>
<path style="fill:#9d1f27; stroke:none;" d="M251 208L252 209L251 208M255 208L256 209L255 208z"/>
<path style="fill:#5c171b; stroke:none;" d="M256 208L257 209L256 208z"/>
<path style="fill:#731a1f; stroke:none;" d="M175 209L176 210L175 209z"/>
<path style="fill:#9d1f27; stroke:none;" d="M179 209L180 210L179 209z"/>
<path style="fill:#731a1f; stroke:none;" d="M180 209L181 210L180 209M185 209L186 210L185 209z"/>
<path style="fill:#9d1f27; stroke:none;" d="M186 209L187 210L186 209M189 209L190 210L189 209z"/>
<path style="fill:#731a1f; stroke:none;" d="M190 209L191 210L190 209M238 209L239 210L238 209z"/>
<path style="fill:#9d1f27; stroke:none;" d="M239 209L240 210L239 209M243.667 209.333L244.333 209.667L243.667 209.333z"/>
<path style="fill:#731a1f; stroke:none;" d="M246 209L247 210L246 209M248 209L249 210L248 209M253 209L254 210L253 209z"/>
<path style="fill:#5c171b; stroke:none;" d="M254 209L255 210L254 209z"/>
<path style="fill:#731a1f; stroke:none;" d="M177 210L178 211L177 210z"/>
<path style="fill:#9d1f27; stroke:none;" d="M178 210L179 211L178 210M187 210L188 211L187 210z"/>
<path style="fill:#5c171b; stroke:none;" d="M188 210L189 211L188 210M240 210L241 211L240 210z"/>
<path style="fill:#9d1f27; stroke:none;" d="M241 210L242 211L241 210M250 210L251 211L250 210z"/>
<path style="fill:#731a1f; stroke:none;" d="M251 210L252 211L251 210z"/>
<path style="fill:#5c171b; stroke:none;" d="M179 211L180 212L179 211z"/>
<path style="fill:#9d1f27; stroke:none;" d="M180 211L181 212L180 211M185 211L186 212L185 211z"/>
<path style="fill:#5c171b; stroke:none;" d="M186 211L187 212L186 211M242 211L243 212L242 211z"/>
<path style="fill:#9d1f27; stroke:none;" d="M243 211L244 212L243 211M248 211L249 212L248 211z"/>
<path style="fill:#731a1f; stroke:none;" d="M249 211L250 212L249 211z"/>
<path style="fill:#5c171b; stroke:none;" d="M181 212L182 213L181 212z"/>
<path style="fill:#9d1f27; stroke:none;" d="M182 212L183 213L182 212z"/>
<path style="fill:#731a1f; stroke:none;" d="M183 212L184 213L183 212z"/>
<path style="fill:#5c171b; stroke:none;" d="M184 212L185 213L184 212M244 212L245 213L244 212z"/>
<path style="fill:#9d1f27; stroke:none;" d="M245.667 212.333L246.333 212.667L245.667 212.333z"/>
<path style="fill:#5c171b; stroke:none;" d="M247 212L248 213L247 212z"/>
<path style="fill:#9d1f27; stroke:none;" d="M89 240L89 247L82 247L82 263L83 263L83 248C88.2899 247.826 91.2702 245.47 89 240z"/>
<path style="fill:#d02630; stroke:none;" d="M90 240C89.8288 245.256 88.4285 247.586 83 248L83 263L90 263L90 266L83 266L83 288L94 288L94 263C100.212 263 109.184 264.601 114.786 261.427C119.566 258.719 119.783 251.782 114.891 249.028C110.109 246.335 101.357 248 96 248L96 251L104 251.001C106.874 251.016 118.84 253.373 111.808 257.822C105.26 261.965 84.8524 261.407 87 251L89 251L90 256L94 256L94 244C101.104 244 110.891 242.212 116.956 246.653C130.664 256.691 114.117 265.993 104 266L119 285L96 266C98.4486 281.445 114.754 288 128 288L113 270C124.5 266.076 132.417 250.373 118.957 242.558C110.956 237.912 98.8915 240 90 240z"/>
<path style="fill:#9d1f27; stroke:none;" d="M113.667 240.333L114.333 240.667L113.667 240.333z"/>
<path style="fill:#731a1f; stroke:none;" d="M115 240L116 241L115 240z"/>
<path style="fill:#5c171b; stroke:none;" d="M116 240L117 241L116 240z"/>
<path style="fill:#9d1f27; stroke:none;" d="M143 240L143 243L144 243L143 240z"/>
<path style="fill:#d02630; stroke:none;" d="M144 240L144 248L137 248L137 263L144 263L144 266L137 266L137 281L144 281L144 289L180 289L180 278C168.801 278 157.157 278.931 146.005 277.941C140.336 277.438 139.041 272.745 144 270L144 275L148 275L148 263L167 263L167 266L150 266L150 270L171 270L171 259C162.927 259 138.42 263.505 141 251L143 251L144 256L148 256L148 244L177 245L177 247L150 248L150 251L180 251L180 240L144 240z"/>
<path style="fill:#9d1f27; stroke:none;" d="M180 240L180 251L150 251L150 252C159.694 252 187.205 257.171 180 240M189 240L189 252L204 252C203.064 246.39 198.849 247.004 194 247L194 245L205 245L205 276L206.028 287.397L217 289L217 288L206 288L206 244L193 245L193 247L203 248L203 251L190 251L189 240z"/>
<path style="fill:#d02630; stroke:none;" d="M190 240L190 251L203 251L203 248L193 247L193 245L206 244L206 288L217 288L217 254L213 254L213 285L210 285L210 251L233 251L233 240L213 240L213 248L210 248L210 240L190 240z"/>
<path style="fill:#9d1f27; stroke:none;" d="M233 240L233 251L210 251L210 252L234 252L233 240z"/>
<path style="fill:#d02630; stroke:none;" d="M253 240L253 248L246 248L246 261L253 261L253 268L246 268L246 288L255 288L255 269C266.778 269.139 269.558 280.388 278.17 286.397C281.7 288.86 286.916 288 291 288L275 269C288.117 268.719 299.137 252.445 285.815 242.995C277.594 237.163 262.57 240 253 240z"/>
<path style="fill:#9d1f27; stroke:none;" d="M280 240L281 241L280 240z"/>
<path style="fill:#731a1f; stroke:none;" d="M281 240L282 241L281 240z"/>
<path style="fill:#5c171b; stroke:none;" d="M282 240L283 241L282 240M316 240L317 241L316 240z"/>
<path style="fill:#731a1f; stroke:none;" d="M317 240L318 241L317 240z"/>
<path style="fill:#9d1f27; stroke:none;" d="M318.667 240.333L319.333 240.667L318.667 240.333z"/>
<path style="fill:#d02630; stroke:none;" d="M299 261L306 261L306 268L299 268C302.969 294.48 342.031 294.48 346 268L339 268L339 261L346 261C343.246 234.111 301.757 234.085 299 261z"/>
<path style="fill:#9d1f27; stroke:none;" d="M324 240L324 241L327 241L324 240z"/>
<path style="fill:#731a1f; stroke:none;" d="M327 240L328 241L327 240z"/>
<path style="fill:#5c171b; stroke:none;" d="M328 240L329 241L328 240z"/>
<path style="fill:#9d1f27; stroke:none;" d="M117 241L118 242L117 241z"/>
<path style="fill:#5c171b; stroke:none;" d="M118 241L119 242L118 241z"/>
<path style="fill:#9d1f27; stroke:none;" d="M255 241L255 242L277 242L255 241M283 241L284 242L283 241z"/>
<path style="fill:#5c171b; stroke:none;" d="M284 241L285 242L284 241z"/>
<path style="fill:#731a1f; stroke:none;" d="M313 241L314 242L313 241z"/>
<path style="fill:#9d1f27; stroke:none;" d="M314 241L315 242L314 241M330 241L331 242L330 241z"/>
<path style="fill:#731a1f; stroke:none;" d="M331 241L332 242L331 241z"/>
<path style="fill:#9d1f27; stroke:none;" d="M119 242L120 243L119 242z"/>
<path style="fill:#431013; stroke:none;" d="M255 242L255 247C261.396 247 286.769 243.629 283.893 255.985C281.673 265.519 262.14 262 255 262L255 267C270.353 267.054 272.664 286.535 287 287L271 267C282.841 266.992 299.142 255.405 283.956 244.703C276.629 239.539 263.521 242 255 242z"/>
<path style="fill:#5c171b; stroke:none;" d="M279 242L280 243L279 242z"/>
<path style="fill:#731a1f; stroke:none;" d="M280 242L281 243L280 242z"/>
<path style="fill:#9d1f27; stroke:none;" d="M281 242L282 243L281 242M285 242L286 243L285 242z"/>
<path style="fill:#731a1f; stroke:none;" d="M311 242L312 243L311 242z"/>
<path style="fill:#9d1f27; stroke:none;" d="M312 242L313 243L312 242M316.667 242.333L317.333 242.667L316.667 242.333z"/>
<path style="fill:#731a1f; stroke:none;" d="M318 242L319 243L318 242z"/>
<path style="fill:#5c171b; stroke:none;" d="M319 242L320 243L319 242z"/>
<path style="fill:#431013; stroke:none;" d="M301 259L307 259C308.007 256.407 309.12 254.281 311.189 252.328C325.613 238.707 331.615 258.046 344 259C336.493 237.346 308.507 237.346 301 259z"/>
<path style="fill:#5c171b; stroke:none;" d="M325 242L326 243L325 242z"/>
<path style="fill:#731a1f; stroke:none;" d="M326 242L327 243L326 242z"/>
<path style="fill:#9d1f27; stroke:none;" d="M327.667 242.333L328.333 242.667L327.667 242.333M332 242L333 243L332 242z"/>
<path style="fill:#731a1f; stroke:none;" d="M333 242L334 243L333 242z"/>
<path style="fill:#9d1f27; stroke:none;" d="M120 243L121 244L120 243z"/>
<path style="fill:#5c171b; stroke:none;" d="M121 243L122 244L121 243z"/>
<path style="fill:#731a1f; stroke:none;" d="M143 243L140 247L140 248C142.85 247.063 143.983 245.988 143 243z"/>
<path style="fill:#5c171b; stroke:none;" d="M282 243L283 244L282 243z"/>
<path style="fill:#731a1f; stroke:none;" d="M283 243L284 244L283 243z"/>
<path style="fill:#5c171b; stroke:none;" d="M287 243L288 244L287 243M309 243L310 244L309 243z"/>
<path style="fill:#731a1f; stroke:none;" d="M314 243L315 244L314 243M330 243L331 244L330 243z"/>
<path style="fill:#5c171b; stroke:none;" d="M335 243L336 244L335 243z"/>
<path style="fill:#9d1f27; stroke:none;" d="M94 244L94 245L114 245L94 244z"/>
<path style="fill:#5c171b; stroke:none;" d="M122 244L123 245L122 244z"/>
<path style="fill:#731a1f; stroke:none;" d="M148 244L148 245L151 245L148 244z"/>
<path style="fill:#9d1f27; stroke:none;" d="M151 244L151 245L164 245L151 244z"/>
<path style="fill:#731a1f; stroke:none;" d="M164 244L164 245L173 245L164 244z"/>
<path style="fill:#9d1f27; stroke:none;" d="M173 244L173 245L176 245L173 244M217 244L217 245L229 245L229 247L217 247L217 248L230 247L230 245L217 244z"/>
<path style="fill:#5c171b; stroke:none;" d="M284 244L285 245L284 244M288 244L289 245L288 244z"/>
<path style="fill:#9d1f27; stroke:none;" d="M308 244L309 245L308 244M311 244L312 245L311 244z"/>
<path style="fill:#731a1f; stroke:none;" d="M312 244L313 245L312 244M332 244L333 245L332 244z"/>
<path style="fill:#9d1f27; stroke:none;" d="M333 244L334 245L333 244M336 244L337 245L336 244z"/>
<path style="fill:#731a1f; stroke:none;" d="M115 245L116 246L115 245z"/>
<path style="fill:#9d1f27; stroke:none;" d="M176.333 245.667L176.667 246.333L176.333 245.667z"/>
<path style="fill:#731a1f; stroke:none;" d="M217.333 245.667L217.667 246.333L217.333 245.667z"/>
<path style="fill:#431013; stroke:none;" d="M218 245L218 247L229 247L229 245L218 245z"/>
<path style="fill:#5c171b; stroke:none;" d="M285 245L286 246L285 245z"/>
<path style="fill:#9d1f27; stroke:none;" d="M288 245L289 246L288 245z"/>
<path style="fill:#5c171b; stroke:none;" d="M306 245L307 246L306 245z"/>
<path style="fill:#731a1f; stroke:none;" d="M310 245L311 246L310 245M334 245L335 246L334 245z"/>
<path style="fill:#9d1f27; stroke:none;" d="M117 246L118 247L117 246M123 246L124 247L123 246z"/>
<path style="fill:#5c171b; stroke:none;" d="M286 246L287 247L286 246z"/>
<path style="fill:#9d1f27; stroke:none;" d="M289 246L290 247L289 246z"/>
<path style="fill:#5c171b; stroke:none;" d="M305 246L306 247L305 246z"/>
<path style="fill:#9d1f27; stroke:none;" d="M308 246L309 247L308 246z"/>
<path style="fill:#5c171b; stroke:none;" d="M309 246L310 247L309 246M335 246L336 247L335 246M95 247L96 248L95 247z"/>
<path style="fill:#9d1f27; stroke:none;" d="M96 247L96 248L113 248L96 247z"/>
<path style="fill:#731a1f; stroke:none;" d="M113 247L114 248L113 247M118 247L119 248L118 247M124 247L125 248L124 247M136 247L137 248L136 247z"/>
<path style="fill:#9d1f27; stroke:none;" d="M137 247L137 248L140 248L137 247M143 247L144 248L143 247z"/>
<path style="fill:#731a1f; stroke:none;" d="M150 247L150 248L158 248L150 247z"/>
<path style="fill:#9d1f27; stroke:none;" d="M158 247L158 248L176 248L158 247z"/>
<path style="fill:#731a1f; stroke:none;" d="M203 247L204 248L203 247z"/>
<path style="fill:#9d1f27; stroke:none;" d="M210 247L210 248L213 248L210 247z"/>
<path style="fill:#5c171b; stroke:none;" d="M245 247L246 248L245 247z"/>
<path style="fill:#731a1f; stroke:none;" d="M246 247L246 248L253 248L246 247M255 247L255 248L278 248L255 247z"/>
<path style="fill:#5c171b; stroke:none;" d="M278 247L279 248L278 247M287 247L288 248L287 247M290 247L291 248L290 247M304 247L305 248L304 247z"/>
<path style="fill:#9d1f27; stroke:none;" d="M307 247L308 248L307 247z"/>
<path style="fill:#5c171b; stroke:none;" d="M320 247L320 248L325 248L320 247z"/>
<path style="fill:#9d1f27; stroke:none;" d="M337 247L338 248L337 247z"/>
<path style="fill:#5c171b; stroke:none;" d="M340 247L341 248L340 247z"/>
<path style="fill:#731a1f; stroke:none;" d="M95 248L95 251L96 251L95 248M115 248L116 249L115 248M119 248L120 249L119 248z"/>
<path style="fill:#9d1f27; stroke:none;" d="M124 248L125 249L124 248M136 248L136 263L137 263L136 248M245 248C245 255.741 243.588 261.888 253 262L253 261L246 261L245 248M280 248L281 249L280 248M288 248L289 249L288 248M290 248L291 249L290 248M306 248L307 249L306 248z"/>
<path style="fill:#5c171b; stroke:none;" d="M316 248L317 249L316 248z"/>
<path style="fill:#9d1f27; stroke:none;" d="M317 248L318 249L317 248M327 248L328 249L327 248z"/>
<path style="fill:#5c171b; stroke:none;" d="M328 248L329 249L328 248z"/>
<path style="fill:#9d1f27; stroke:none;" d="M338 248L339 249L338 248M116 249L117 250L116 249M120 249L121 250L120 249z"/>
<path style="fill:#5c171b; stroke:none;" d="M125 249L126 250L125 249z"/>
<path style="fill:#9d1f27; stroke:none;" d="M247 249L247 250L253 250L247 249M255 249L255 250L279 250L255 249z"/>
<path style="fill:#5c171b; stroke:none;" d="M282 249L283 250L282 249M288 249L289 250L288 249M291 249L292 250L291 249z"/>
<path style="fill:#9d1f27; stroke:none;" d="M303 249L304 250L303 249M305 249L306 250L305 249z"/>
<path style="fill:#731a1f; stroke:none;" d="M314 249L315 250L314 249z"/>
<path style="fill:#9d1f27; stroke:none;" d="M315 249L316 250L315 249M320 249L320 250L325 250L320 249M329 249L330 250L329 249z"/>
<path style="fill:#731a1f; stroke:none;" d="M330 249L331 250L330 249z"/>
<path style="fill:#9d1f27; stroke:none;" d="M339 249L340 250L339 249M341 249L342 250L341 249z"/>
<path style="fill:#731a1f; stroke:none;" d="M117 250L118 251L117 250z"/>
<path style="fill:#5c171b; stroke:none;" d="M120 250L121 251L120 250z"/>
<path style="fill:#9d1f27; stroke:none;" d="M125 250L126 251L125 250z"/>
<path style="fill:#731a1f; stroke:none;" d="M247 250L247 260L253 260L253 259L248 259L247 250z"/>
<path style="fill:#431013; stroke:none;" d="M248 250L248 259L253 259L253 250L248 250M255 250L255 259C260.077 259 280.592 261.937 281.338 254.985C282.189 247.064 259.863 250 255 250z"/>
<path style="fill:#5c171b; stroke:none;" d="M279 250L280 251L279 250z"/>
<path style="fill:#9d1f27; stroke:none;" d="M280 250L281 251L280 250M289 250L290 251L289 250z"/>
<path style="fill:#731a1f; stroke:none;" d="M291 250L292 251L291 250M302 250L303 251L302 250z"/>
<path style="fill:#9d1f27; stroke:none;" d="M313 250L314 251L313 250z"/>
<path style="fill:#731a1f; stroke:none;" d="M317 250L318 251L317 250z"/>
<path style="fill:#5c171b; stroke:none;" d="M318 250L319 251L318 250z"/>
<path style="fill:#431013; stroke:none;" d="M309 259L336 259C329.953 247.449 315.047 247.449 309 259z"/>
<path style="fill:#5c171b; stroke:none;" d="M326 250L327 251L326 250z"/>
<path style="fill:#731a1f; stroke:none;" d="M327 250L328 251L327 250z"/>
<path style="fill:#9d1f27; stroke:none;" d="M331 250L332 251L331 250z"/>
<path style="fill:#731a1f; stroke:none;" d="M342 250L343 251L342 250z"/>
<path style="fill:#9d1f27; stroke:none;" d="M87.6667 251.333L88.3333 251.667L87.6667 251.333z"/>
<path style="fill:#5c171b; stroke:none;" d="M95 251L96 252L95 251z"/>
<path style="fill:#9d1f27; stroke:none;" d="M96 251L96 252L112 252L96 251z"/>
<path style="fill:#5c171b; stroke:none;" d="M118 251L119 252L118 251z"/>
<path style="fill:#9d1f27; stroke:none;" d="M121 251L122 252L121 251M141.667 251.333L142.333 251.667L141.667 251.333z"/>
<path style="fill:#731a1f; stroke:none;" d="M180 251L181 252L180 251z"/>
<path style="fill:#9d1f27; stroke:none;" d="M281 251L282 252L281 251M283 251L284 252L283 251z"/>
<path style="fill:#731a1f; stroke:none;" d="M289 251L290 252L289 251z"/>
<path style="fill:#9d1f27; stroke:none;" d="M291.333 251.667L291.667 252.333L291.333 251.667z"/>
<path style="fill:#5c171b; stroke:none;" d="M301 251L302 252L301 251M304 251L305 252L304 251M311 251L312 252L311 251z"/>
<path style="fill:#731a1f; stroke:none;" d="M315 251L316 252L315 251M329 251L330 252L329 251z"/>
<path style="fill:#5c171b; stroke:none;" d="M333 251L334 252L333 251M340 251L341 252L340 251M343 251L344 252L343 251z"/>
<path style="fill:#9d1f27; stroke:none;" d="M86 252L86 258L87 258L86 252M89 252C89.5765 255.474 90.5255 256.423 94 257L94 256L90 256L89 252M113 252L114 253L113 252M118 252L119 253L118 252z"/>
<path style="fill:#731a1f; stroke:none;" d="M121.333 252.667L121.667 253.333L121.333 252.667z"/>
<path style="fill:#9d1f27; stroke:none;" d="M140 252L140 258L141 258L140 252z"/>
<path style="fill:#731a1f; stroke:none;" d="M143 252L143 257L144 257L143 252z"/>
<path style="fill:#5c171b; stroke:none;" d="M281 252L282 253L281 252M289 252L290 253L289 252z"/>
<path style="fill:#9d1f27; stroke:none;" d="M301 252L302 253L301 252z"/>
<path style="fill:#731a1f; stroke:none;" d="M303 252L304 253L303 252z"/>
<path style="fill:#5c171b; stroke:none;" d="M310 252L311 253L310 252z"/>
<path style="fill:#9d1f27; stroke:none;" d="M313 252L314 253L313 252M331 252L332 253L331 252z"/>
<path style="fill:#731a1f; stroke:none;" d="M334 252L335 253L334 252M341 252L342 253L341 252z"/>
<path style="fill:#9d1f27; stroke:none;" d="M343 252L344 253L343 252z"/>
<path style="fill:#5c171b; stroke:none;" d="M126 253L127 254L126 253z"/>
<path style="fill:#731a1f; stroke:none;" d="M213 253L213 254L217 254L217 288C219.733 281.488 220.999 254.335 213 253z"/>
<path style="fill:#5c171b; stroke:none;" d="M217 253L218 254L217 253z"/>
<path style="fill:#9d1f27; stroke:none;" d="M282 253L282 256L283 256L282 253z"/>
<path style="fill:#5c171b; stroke:none;" d="M284 253L285 254L284 253M300 253L301 254L300 253M309 253L310 254L309 253z"/>
<path style="fill:#731a1f; stroke:none;" d="M312 253L313 254L312 253M332 253L333 254L332 253z"/>
<path style="fill:#5c171b; stroke:none;" d="M335 253L336 254L335 253M344 253L345 254L344 253z"/>
<path style="fill:#9d1f27; stroke:none;" d="M114 254L115 255L114 254z"/>
<path style="fill:#5c171b; stroke:none;" d="M121 254L122 255L121 254z"/>
<path style="fill:#731a1f; stroke:none;" d="M126 254L126 257L127 257L126 254M284.333 254.667L284.667 255.333L284.333 254.667z"/>
<path style="fill:#9d1f27; stroke:none;" d="M300 254L301 255L300 254z"/>
<path style="fill:#731a1f; stroke:none;" d="M302 254L303 255L302 254z"/>
<path style="fill:#9d1f27; stroke:none;" d="M311 254L312 255L311 254z"/>
<path style="fill:#731a1f; stroke:none;" d="M333 254L334 255L333 254M342 254L343 255L342 254z"/>
<path style="fill:#9d1f27; stroke:none;" d="M344 254L345 255L344 254z"/>
<path style="fill:#731a1f; stroke:none;" d="M114 255L115 256L114 255z"/>
<path style="fill:#5c171b; stroke:none;" d="M299 255L300 256L299 255z"/>
<path style="fill:#9d1f27; stroke:none;" d="M308 255L309 256L308 255M310 255L311 256L310 255M334 255L335 256L334 255M336 255L337 256L336 255z"/>
<path style="fill:#5c171b; stroke:none;" d="M345 255L346 256L345 255z"/>
<path style="fill:#731a1f; stroke:none;" d="M89 256L90 257L89 256z"/>
<path style="fill:#9d1f27; stroke:none;" d="M114 256L115 257L114 256z"/>
<path style="fill:#731a1f; stroke:none;" d="M121.333 256.667L121.667 257.333L121.333 256.667z"/>
<path style="fill:#9d1f27; stroke:none;" d="M144 256L144 257L148 257L144 256z"/>
<path style="fill:#5c171b; stroke:none;" d="M281 256L282 257L281 256z"/>
<path style="fill:#9d1f27; stroke:none;" d="M291.333 256.667L291.667 257.333L291.333 256.667z"/>
<path style="fill:#731a1f; stroke:none;" d="M299 256L300 257L299 256M301 256L302 257L301 256z"/>
<path style="fill:#5c171b; stroke:none;" d="M307 256L308 257L307 256M337 256L338 257L337 256z"/>
<path style="fill:#9d1f27; stroke:none;" d="M343 256L344 257L343 256z"/>
<path style="fill:#731a1f; stroke:none;" d="M345 256L346 257L345 256M113 257L114 258L113 257z"/>
<path style="fill:#9d1f27; stroke:none;" d="M118 257L119 258L118 257M281 257L282 258L281 257M283 257L284 258L283 257z"/>
<path style="fill:#731a1f; stroke:none;" d="M289 257L290 258L289 257z"/>
<path style="fill:#5c171b; stroke:none;" d="M301 257L302 258L301 257z"/>
<path style="fill:#9d1f27; stroke:none;" d="M307 257L308 258L307 257z"/>
<path style="fill:#731a1f; stroke:none;" d="M309 257L310 258L309 257M335 257L336 258L335 257z"/>
<path style="fill:#9d1f27; stroke:none;" d="M337 257L338 258L337 257z"/>
<path style="fill:#5c171b; stroke:none;" d="M343 257L344 258L343 257z"/>
<path style="fill:#9d1f27; stroke:none;" d="M87 258L87 259L112 259L87 258z"/>
<path style="fill:#5c171b; stroke:none;" d="M118 258L119 259L118 258z"/>
<path style="fill:#9d1f27; stroke:none;" d="M121 258L122 259L121 258M141.667 258.333L142.333 258.667L141.667 258.333z"/>
<path style="fill:#731a1f; stroke:none;" d="M143 258L143 259L150 259L143 258z"/>
<path style="fill:#9d1f27; stroke:none;" d="M150 258L150 259L171 259L150 258z"/>
<path style="fill:#5c171b; stroke:none;" d="M171 258L172 259L171 258z"/>
<path style="fill:#731a1f; stroke:none;" d="M280 258L281 259L280 258z"/>
<path style="fill:#5c171b; stroke:none;" d="M283 258L284 259L283 258z"/>
<path style="fill:#9d1f27; stroke:none;" d="M289 258L290 259L289 258z"/>
<path style="fill:#731a1f; stroke:none;" d="M291 258L292 259L291 258z"/>
<path style="fill:#5c171b; stroke:none;" d="M298 258L299 259L298 258M338 258L338 259L344 260L344 259L338 258M346 258L347 259L346 258z"/>
<path style="fill:#9d1f27; stroke:none;" d="M117 259L118 260L117 259z"/>
<path style="fill:#5c171b; stroke:none;" d="M120 259L121 260L120 259z"/>
<path style="fill:#9d1f27; stroke:none;" d="M125 259L126 260L125 259z"/>
<path style="fill:#731a1f; stroke:none;" d="M171 259L171 270L172 270L171 259M255 259L255 260L278 260L255 259z"/>
<path style="fill:#9d1f27; stroke:none;" d="M278 259L279 260L278 259z"/>
<path style="fill:#5c171b; stroke:none;" d="M282 259L283 260L282 259M291 259L292 260L291 259z"/>
<path style="fill:#731a1f; stroke:none;" d="M298 259L299 260L298 259z"/>
<path style="fill:#9d1f27; stroke:none;" d="M300 259L301 260L300 259z"/>
<path style="fill:#731a1f; stroke:none;" d="M301 259L301 260L306 260L301 259z"/>
<path style="fill:#9d1f27; stroke:none;" d="M306 259L307 260L306 259M308 259L309 260L308 259z"/>
<path style="fill:#731a1f; stroke:none;" d="M309 259L309 260L312 260L309 259z"/>
<path style="fill:#5c171b; stroke:none;" d="M312 259L312 260L336 260L312 259z"/>
<path style="fill:#9d1f27; stroke:none;" d="M336 259L337 260L336 259M338 259L339 260L338 259M344 259L345 260L344 259z"/>
<path style="fill:#731a1f; stroke:none;" d="M346 259L347 260L346 259z"/>
<path style="fill:#9d1f27; stroke:none;" d="M120 260L121 261L120 260z"/>
<path style="fill:#5c171b; stroke:none;" d="M125 260L126 261L125 260z"/>
<path style="fill:#9d1f27; stroke:none;" d="M280 260L281 261L280 260z"/>
<path style="fill:#5c171b; stroke:none;" d="M281 260L282 261L281 260z"/>
<path style="fill:#731a1f; stroke:none;" d="M288 260L289 261L288 260z"/>
<path style="fill:#9d1f27; stroke:none;" d="M290 260L291 261L290 260M298 260L298 261L306 262L306 261L298 260M346 260L339 261L339 262L347 261L346 260M115 261L116 262L115 261z"/>
<path style="fill:#731a1f; stroke:none;" d="M119 261L120 262L119 261z"/>
<path style="fill:#9d1f27; stroke:none;" d="M124 261L125 262L124 261z"/>
<path style="fill:#731a1f; stroke:none;" d="M245 261L246 262L245 261z"/>
<path style="fill:#9d1f27; stroke:none;" d="M255 261L255 262L278 262L255 261z"/>
<path style="fill:#731a1f; stroke:none;" d="M278 261L279 262L278 261z"/>
<path style="fill:#5c171b; stroke:none;" d="M279 261L280 262L279 261M287 261L288 262L287 261z"/>
<path style="fill:#731a1f; stroke:none;" d="M290 261L291 262L290 261M298 261L299 262L298 261z"/>
<path style="fill:#9d1f27; stroke:none;" d="M307 266L308 266L308 262L337 262L337 267L308 267C311.699 268.552 316.017 268 320 268L328 268C330.423 267.999 343.583 265.505 335.681 261.603C329.875 258.736 308.185 258.897 307 266z"/>
<path style="fill:#731a1f; stroke:none;" d="M346 261L347 262L346 261z"/>
<path style="fill:#9d1f27; stroke:none;" d="M112.667 262.333L113.333 262.667L112.667 262.333z"/>
<path style="fill:#5c171b; stroke:none;" d="M114 262L115 263L114 262M118 262L119 263L118 262z"/>
<path style="fill:#731a1f; stroke:none;" d="M124 262L125 263L124 262z"/>
<path style="fill:#9d1f27; stroke:none;" d="M287 262L288 263L287 262M289 262L290 263L289 262z"/>
<path style="fill:#5c171b; stroke:none;" d="M305 262L306 263L305 262z"/>
<path style="fill:#431013; stroke:none;" d="M308 262L308 267L337 267L337 262L308 262z"/>
<path style="fill:#9d1f27; stroke:none;" d="M89 263L89 266L90 266L89 263z"/>
<path style="fill:#731a1f; stroke:none;" d="M117 263L118 264L117 263z"/>
<path style="fill:#9d1f27; stroke:none;" d="M123 263L124 264L123 263M143 263L143 266L144 266L143 263z"/>
<path style="fill:#731a1f; stroke:none;" d="M166 263L166 266L167 266L166 263z"/>
<path style="fill:#9d1f27; stroke:none;" d="M286 263L287 264L286 263z"/>
<path style="fill:#5c171b; stroke:none;" d="M289 263L290 264L289 263z"/>
<path style="fill:#731a1f; stroke:none;" d="M305 263L305 266L306 266L305 263z"/>
<path style="fill:#5c171b; stroke:none;" d="M339 263L339 266L340 266L339 263M115 264L116 265L115 264z"/>
<path style="fill:#9d1f27; stroke:none;" d="M116 264L117 265L116 264M285 264L286 265L285 264z"/>
<path style="fill:#5c171b; stroke:none;" d="M288 264L289 265L288 264M82 265L82 266L89 266L82 265M96.6667 265.333L97.3333 265.667L96.6667 265.333M103 265L103 266L112 266L103 265z"/>
<path style="fill:#731a1f; stroke:none;" d="M112 265L113 266L112 265z"/>
<path style="fill:#9d1f27; stroke:none;" d="M113 265L114 266L113 265z"/>
<path style="fill:#5c171b; stroke:none;" d="M122 265L123 266L122 265z"/>
<path style="fill:#731a1f; stroke:none;" d="M283 265L284 266L283 265z"/>
<path style="fill:#5c171b; stroke:none;" d="M287 265L288 266L287 265z"/>
<path style="fill:#9d1f27; stroke:none;" d="M82 266L82 289L94 289L94 288L83 288L82 266z"/>
<path style="fill:#5c171b; stroke:none;" d="M95 266L95 270L96 270L95 266z"/>
<path style="fill:#731a1f; stroke:none;" d="M103 266L104 267L103 266z"/>
<path style="fill:#5c171b; stroke:none;" d="M121 266L122 267L121 266z"/>
<path style="fill:#9d1f27; stroke:none;" d="M136 266C136 273.153 133.747 281.696 143 282L143 289L144 289L144 281L137 281L136 266z"/>
<path style="fill:#5c171b; stroke:none;" d="M280 266L281 267L280 266z"/>
<path style="fill:#731a1f; stroke:none;" d="M281 266L282 267L281 266z"/>
<path style="fill:#9d1f27; stroke:none;" d="M282 266L283 267L282 266M285 266L286 267L285 266z"/>
<path style="fill:#5c171b; stroke:none;" d="M286 266L287 267L286 266z"/>
<path style="fill:#9d1f27; stroke:none;" d="M100 267L101 268L100 267z"/>
<path style="fill:#731a1f; stroke:none;" d="M104 267L105 268L104 267z"/>
<path style="fill:#9d1f27; stroke:none;" d="M119 267L120 268L119 267z"/>
<path style="fill:#731a1f; stroke:none;" d="M245 267L246 268L245 267z"/>
<path style="fill:#9d1f27; stroke:none;" d="M246 267L246 268L253 268L246 267M255 267L255 268L263 268L255 267z"/>
<path style="fill:#731a1f; stroke:none;" d="M263 267L264 268L263 267M271 267L272 268L271 267z"/>
<path style="fill:#9d1f27; stroke:none;" d="M272 267L272 268L279 268L272 267z"/>
<path style="fill:#731a1f; stroke:none;" d="M284 267L285 268L284 267M298 267L299 268L298 267z"/>
<path style="fill:#9d1f27; stroke:none;" d="M299 267L299 268L306 268L299 267M339 267L339 268L347 269L339 267z"/>
<path style="fill:#5c171b; stroke:none;" d="M346 267L347 268L346 267z"/>
<path style="fill:#9d1f27; stroke:none;" d="M101 268L102 269L101 268M105 268L106 269L105 268M117 268L118 269L117 268z"/>
<path style="fill:#731a1f; stroke:none;" d="M118 268L119 269L118 268z"/>
<path style="fill:#9d1f27; stroke:none;" d="M245 268L245 289L255 289L255 288L246 288L245 268z"/>
<path style="fill:#731a1f; stroke:none;" d="M264 268L265 269L264 268z"/>
<path style="fill:#5c171b; stroke:none;" d="M271 268L272 269L271 268z"/>
<path style="fill:#9d1f27; stroke:none;" d="M281 268L282 269L281 268z"/>
<path style="fill:#731a1f; stroke:none;" d="M282 268L283 269L282 268z"/>
<path style="fill:#9d1f27; stroke:none;" d="M298 268L299 269L298 268M102 269L103 270L102 269M106 269L107 270L106 269M114.667 269.333L115.333 269.667L114.667 269.333z"/>
<path style="fill:#5c171b; stroke:none;" d="M116 269L117 270L116 269z"/>
<path style="fill:#731a1f; stroke:none;" d="M247 269L247 287L248 287L248 270L253 270L247 269M255 269L255 270L263 270L255 269z"/>
<path style="fill:#5c171b; stroke:none;" d="M265 269L266 270L265 269z"/>
<path style="fill:#731a1f; stroke:none;" d="M272 269L273 270L272 269M275 269L275 270L279 270L275 269z"/>
<path style="fill:#5c171b; stroke:none;" d="M279 269L280 270L279 269z"/>
<path style="fill:#731a1f; stroke:none;" d="M298 269L299 270L298 269z"/>
<path style="fill:#9d1f27; stroke:none;" d="M300 269L301 270L300 269z"/>
<path style="fill:#731a1f; stroke:none;" d="M301 269L301 270L306 270L301 269z"/>
<path style="fill:#9d1f27; stroke:none;" d="M306 269L307 270L306 269M308 269L309 270L308 269z"/>
<path style="fill:#731a1f; stroke:none;" d="M309 269L309 270L328 270L309 269z"/>
<path style="fill:#5c171b; stroke:none;" d="M328 269L329 270L328 269z"/>
<path style="fill:#731a1f; stroke:none;" d="M329 269L330 270L329 269z"/>
<path style="fill:#5c171b; stroke:none;" d="M330 269L331 270L330 269z"/>
<path style="fill:#731a1f; stroke:none;" d="M331 269L332 270L331 269z"/>
<path style="fill:#5c171b; stroke:none;" d="M332 269L332 270L336 270L332 269z"/>
<path style="fill:#9d1f27; stroke:none;" d="M336 269L337 270L336 269M338 269L339 270L338 269z"/>
<path style="fill:#5c171b; stroke:none;" d="M339 269L339 270L344 270L339 269z"/>
<path style="fill:#9d1f27; stroke:none;" d="M344 269L345 270L344 269z"/>
<path style="fill:#731a1f; stroke:none;" d="M346 269L347 270L346 269z"/>
<path style="fill:#5c171b; stroke:none;" d="M87.6667 270.333L88.3333 270.667L87.6667 270.333z"/>
<path style="fill:#9d1f27; stroke:none;" d="M89 270L89 284L87 284L87 271L86 271C86 275.991 84.3303 283.118 90 285L89 270z"/>
<path style="fill:#5c171b; stroke:none;" d="M96 270L97 271L96 270z"/>
<path style="fill:#9d1f27; stroke:none;" d="M97 270L98 271L97 270z"/>
<path style="fill:#731a1f; stroke:none;" d="M103 270L104 271L103 270z"/>
<path style="fill:#5c171b; stroke:none;" d="M113 270L114 271L113 270z"/>
<path style="fill:#731a1f; stroke:none;" d="M141 270L142 271L141 270z"/>
<path style="fill:#9d1f27; stroke:none;" d="M142 270L143 275L144 275L142 270M150 270L150 271L171 271L150 270z"/>
<path style="fill:#5c171b; stroke:none;" d="M171 270L172 271L171 270z"/>
<path style="fill:#431013; stroke:none;" d="M248 270L248 287L253 287L253 270L248 270z"/>
<path style="fill:#731a1f; stroke:none;" d="M263 270L264 271L263 270z"/>
<path style="fill:#5c171b; stroke:none;" d="M266 270L267 271L266 270z"/>
<path style="fill:#731a1f; stroke:none;" d="M273 270L274 271L273 270z"/>
<path style="fill:#5c171b; stroke:none;" d="M276 270L277 271L276 270z"/>
<path style="fill:#431013; stroke:none;" d="M301 270C308.425 291.418 336.576 291.414 344 270L338 270C331.973 284.118 312.727 284.742 307 270L301 270M309 270C315.523 281.044 329.719 281.849 336 270L309 270M87 271L87 284L89 284L89 271L87 271z"/>
<path style="fill:#9d1f27; stroke:none;" d="M98 271L99 272L98 271z"/>
<path style="fill:#731a1f; stroke:none;" d="M104 271L105 272L104 271z"/>
<path style="fill:#9d1f27; stroke:none;" d="M113 271L114 272L113 271M140 271L140 277L141 277L140 271M264 271L265 272L264 271z"/>
<path style="fill:#5c171b; stroke:none;" d="M267 271L268 272L267 271z"/>
<path style="fill:#9d1f27; stroke:none;" d="M274 271L275 272L274 271z"/>
<path style="fill:#5c171b; stroke:none;" d="M277 271L278 272L277 271z"/>
<path style="fill:#9d1f27; stroke:none;" d="M299 271L300 272L299 271z"/>
<path style="fill:#5c171b; stroke:none;" d="M301 271L302 272L301 271z"/>
<path style="fill:#9d1f27; stroke:none;" d="M307 271L308 272L307 271z"/>
<path style="fill:#731a1f; stroke:none;" d="M309 271L310 272L309 271M335 271L336 272L335 271z"/>
<path style="fill:#9d1f27; stroke:none;" d="M337 271L338 272L337 271z"/>
<path style="fill:#731a1f; stroke:none;" d="M343 271L344 272L343 271z"/>
<path style="fill:#9d1f27; stroke:none;" d="M345 271L346 272L345 271z"/>
<path style="fill:#5c171b; stroke:none;" d="M105 272L106 273L105 272M108 272L109 273L108 272z"/>
<path style="fill:#9d1f27; stroke:none;" d="M114 272L115 273L114 272M265 272L266 273L265 272z"/>
<path style="fill:#5c171b; stroke:none;" d="M268 272L269 273L268 272z"/>
<path style="fill:#9d1f27; stroke:none;" d="M275 272L276 273L275 272z"/>
<path style="fill:#5c171b; stroke:none;" d="M278 272L279 273L278 272z"/>
<path style="fill:#731a1f; stroke:none;" d="M299 272L300 273L299 272z"/>
<path style="fill:#9d1f27; stroke:none;" d="M301 272L302 273L301 272z"/>
<path style="fill:#5c171b; stroke:none;" d="M307 272L308 273L307 272M310 272L311 273L310 272M337 272L338 273L337 272z"/>
<path style="fill:#9d1f27; stroke:none;" d="M343 272L344 273L343 272z"/>
<path style="fill:#731a1f; stroke:none;" d="M345 272L346 273L345 272z"/>
<path style="fill:#5c171b; stroke:none;" d="M106 273L107 274L106 273M109 273L110 274L109 273z"/>
<path style="fill:#9d1f27; stroke:none;" d="M115 273L116 274L115 273M266 273L267 274L266 273z"/>
<path style="fill:#5c171b; stroke:none;" d="M269 273L270 274L269 273z"/>
<path style="fill:#9d1f27; stroke:none;" d="M278 273L279 274L278 273z"/>
<path style="fill:#5c171b; stroke:none;" d="M299 273L300 274L299 273z"/>
<path style="fill:#9d1f27; stroke:none;" d="M308 273L309 274L308 273M310 273L311 274L310 273M334 273L335 274L334 273M336 273L337 274L336 273z"/>
<path style="fill:#5c171b; stroke:none;" d="M345 273L346 274L345 273z"/>
<path style="fill:#731a1f; stroke:none;" d="M110 274L111 275L110 274M116 274L117 275L116 274z"/>
<path style="fill:#5c171b; stroke:none;" d="M266 274L267 275L266 274z"/>
<path style="fill:#9d1f27; stroke:none;" d="M269 274L270 275L269 274z"/>
<path style="fill:#5c171b; stroke:none;" d="M276 274L277 275L276 274z"/>
<path style="fill:#9d1f27; stroke:none;" d="M279 274L280 275L279 274M300 274L301 275L300 274M302 274L303 275L302 274M311 274L312 275L311 274M333 274L334 275L333 274M342 274L343 275L342 274M344 274L345 275L344 274z"/>
<path style="fill:#5c171b; stroke:none;" d="M101 275L102 276L101 275z"/>
<path style="fill:#9d1f27; stroke:none;" d="M107 275L108 276L107 275z"/>
<path style="fill:#731a1f; stroke:none;" d="M111 275L112 276L111 275M117 275L118 276L117 275z"/>
<path style="fill:#5c171b; stroke:none;" d="M143 275L144 276L143 275z"/>
<path style="fill:#731a1f; stroke:none;" d="M144 275L144 276L148 276L144 275z"/>
<path style="fill:#5c171b; stroke:none;" d="M267 275L268 276L267 275z"/>
<path style="fill:#9d1f27; stroke:none;" d="M270 275L271 276L270 275z"/>
<path style="fill:#5c171b; stroke:none;" d="M277 275L278 276L277 275z"/>
<path style="fill:#731a1f; stroke:none;" d="M280 275L281 276L280 275z"/>
<path style="fill:#5c171b; stroke:none;" d="M300 275L301 276L300 275M309 275L310 276L309 275z"/>
<path style="fill:#9d1f27; stroke:none;" d="M312 275L313 276L312 275M332 275L333 276L332 275z"/>
<path style="fill:#5c171b; stroke:none;" d="M344 275L345 276L344 275z"/>
<path style="fill:#731a1f; stroke:none;" d="M102 276L103 277L102 276z"/>
<path style="fill:#9d1f27; stroke:none;" d="M108 276L109 277L108 276M112 276L113 277L112 276z"/>
<path style="fill:#5c171b; stroke:none;" d="M118 276L119 277L118 276M268 276L269 277L268 276z"/>
<path style="fill:#9d1f27; stroke:none;" d="M271 276L272 277L271 276z"/>
<path style="fill:#5c171b; stroke:none;" d="M278 276L279 277L278 276z"/>
<path style="fill:#731a1f; stroke:none;" d="M281 276L282 277L281 276z"/>
<path style="fill:#9d1f27; stroke:none;" d="M301 276L302 277L301 276M303 276L304 277L303 276z"/>
<path style="fill:#5c171b; stroke:none;" d="M310 276L311 277L310 276z"/>
<path style="fill:#9d1f27; stroke:none;" d="M313 276L314 277L313 276z"/>
<path style="fill:#5c171b; stroke:none;" d="M314 276L315 277L314 276M330 276L331 277L330 276z"/>
<path style="fill:#9d1f27; stroke:none;" d="M331 276L332 277L331 276z"/>
<path style="fill:#5c171b; stroke:none;" d="M334 276L335 277L334 276z"/>
<path style="fill:#9d1f27; stroke:none;" d="M341 276L342 277L341 276M343 276L344 277L343 276z"/>
<path style="fill:#731a1f; stroke:none;" d="M103 277L104 278L103 277z"/>
<path style="fill:#9d1f27; stroke:none;" d="M109 277L110 278L109 277M113 277L114 278L113 277z"/>
<path style="fill:#5c171b; stroke:none;" d="M119 277L120 278L119 277z"/>
<path style="fill:#9d1f27; stroke:none;" d="M141 277L141 278L180 278L180 289C187.653 270.762 151.29 277 141 277z"/>
<path style="fill:#731a1f; stroke:none;" d="M180 277L181 278L180 277z"/>
<path style="fill:#5c171b; stroke:none;" d="M269 277L270 278L269 277z"/>
<path style="fill:#731a1f; stroke:none;" d="M272 277L273 278L272 277M279 277L280 278L279 277z"/>
<path style="fill:#5c171b; stroke:none;" d="M282 277L283 278L282 277M301 277L302 278L301 277z"/>
<path style="fill:#731a1f; stroke:none;" d="M304 277L305 278L304 277z"/>
<path style="fill:#5c171b; stroke:none;" d="M311 277L312 278L311 277z"/>
<path style="fill:#9d1f27; stroke:none;" d="M315 277L316 278L315 277z"/>
<path style="fill:#731a1f; stroke:none;" d="M329 277L330 278L329 277z"/>
<path style="fill:#5c171b; stroke:none;" d="M340 277L341 278L340 277M343 277L344 278L343 277z"/>
<path style="fill:#731a1f; stroke:none;" d="M104 278L105 279L104 278M110 278L111 279L110 278z"/>
<path style="fill:#9d1f27; stroke:none;" d="M114 278L115 279L114 278z"/>
<path style="fill:#5c171b; stroke:none;" d="M270 278L271 279L270 278z"/>
<path style="fill:#731a1f; stroke:none;" d="M273 278L274 279L273 278M280 278L281 279L280 278z"/>
<path style="fill:#5c171b; stroke:none;" d="M283 278L284 279L283 278z"/>
<path style="fill:#731a1f; stroke:none;" d="M302 278L303 279L302 278z"/>
<path style="fill:#9d1f27; stroke:none;" d="M313 278L314 279L313 278M317 278L318 279L317 278z"/>
<path style="fill:#5c171b; stroke:none;" d="M318 278L319 279L318 278M326 278L327 279L326 278z"/>
<path style="fill:#9d1f27; stroke:none;" d="M327 278L328 279L327 278M331 278L332 279L331 278z"/>
<path style="fill:#731a1f; stroke:none;" d="M342 278L343 279L342 278z"/>
<path style="fill:#9d1f27; stroke:none;" d="M105 279L106 280L105 279z"/>
<path style="fill:#731a1f; stroke:none;" d="M111 279L112 280L111 279z"/>
<path style="fill:#5c171b; stroke:none;" d="M114 279L115 280L114 279z"/>
<path style="fill:#731a1f; stroke:none;" d="M271 279L272 280L271 279z"/>
<path style="fill:#5c171b; stroke:none;" d="M274 279L275 280L274 279z"/>
<path style="fill:#9d1f27; stroke:none;" d="M281 279L282 280L281 279M303 279L304 280L303 279z"/>
<path style="fill:#5c171b; stroke:none;" d="M314 279L315 280L314 279z"/>
<path style="fill:#9d1f27; stroke:none;" d="M315 279L316 280L315 279M321 279L321 280L324 280L321 279M329 279L330 280L329 279z"/>
<path style="fill:#5c171b; stroke:none;" d="M330 279L331 280L330 279z"/>
<path style="fill:#9d1f27; stroke:none;" d="M341 279L342 280L341 279M106 280L107 281L106 280z"/>
<path style="fill:#731a1f; stroke:none;" d="M112 280L113 281L112 280z"/>
<path style="fill:#5c171b; stroke:none;" d="M115 280L116 281L115 280z"/>
<path style="fill:#9d1f27; stroke:none;" d="M121 280L122 281L121 280z"/>
<path style="fill:#731a1f; stroke:none;" d="M272 280L273 281L272 280z"/>
<path style="fill:#5c171b; stroke:none;" d="M275 280L276 281L275 280z"/>
<path style="fill:#9d1f27; stroke:none;" d="M282 280L283 281L282 280z"/>
<path style="fill:#731a1f; stroke:none;" d="M317 280L318 281L317 280z"/>
<path style="fill:#9d1f27; stroke:none;" d="M318 280L319 281L318 280M326 280L327 281L326 280z"/>
<path style="fill:#731a1f; stroke:none;" d="M327 280L328 281L327 280z"/>
<path style="fill:#5c171b; stroke:none;" d="M113 281L114 282L113 281z"/>
<path style="fill:#731a1f; stroke:none;" d="M116 281L117 282L116 281z"/>
<path style="fill:#9d1f27; stroke:none;" d="M122 281L123 282L122 281z"/>
<path style="fill:#731a1f; stroke:none;" d="M136 281L137 282L136 281z"/>
<path style="fill:#9d1f27; stroke:none;" d="M148 281L148 282L176 282L176 284L148 284L148 285L177 284L177 282L148 281M273 281L274 282L273 281z"/>
<path style="fill:#5c171b; stroke:none;" d="M276 281L277 282L276 281z"/>
<path style="fill:#9d1f27; stroke:none;" d="M285 281L286 282L285 281z"/>
<path style="fill:#5c171b; stroke:none;" d="M322 281L323 282L322 281M114 282L115 283L114 282z"/>
<path style="fill:#731a1f; stroke:none;" d="M117 282L118 283L117 282M123 282L124 283L123 282z"/>
<path style="fill:#431013; stroke:none;" d="M148 282L148 284L176 284L176 282L148 282z"/>
<path style="fill:#9d1f27; stroke:none;" d="M274 282L275 283L274 282M286 282L287 283L286 282z"/>
<path style="fill:#731a1f; stroke:none;" d="M309 282L310 283L309 282z"/>
<path style="fill:#5c171b; stroke:none;" d="M335 282L336 283L335 282M108 283L109 284L108 283z"/>
<path style="fill:#9d1f27; stroke:none;" d="M118 283L119 284L118 283z"/>
<path style="fill:#731a1f; stroke:none;" d="M124 283L125 284L124 283z"/>
<path style="fill:#9d1f27; stroke:none;" d="M275 283L276 284L275 283z"/>
<path style="fill:#5c171b; stroke:none;" d="M284 283L285 284L284 283z"/>
<path style="fill:#731a1f; stroke:none;" d="M287 283L288 284L287 283z"/>
<path style="fill:#9d1f27; stroke:none;" d="M307 283L308 284L307 283M310 283L311 284L310 283M334 283L335 284L334 283M337 283L338 284L337 283z"/>
<path style="fill:#5c171b; stroke:none;" d="M109 284L110 285L109 284z"/>
<path style="fill:#9d1f27; stroke:none;" d="M115 284L116 285L115 284z"/>
<path style="fill:#731a1f; stroke:none;" d="M116 284L116 285L119 285L116 284z"/>
<path style="fill:#5c171b; stroke:none;" d="M125 284L126 285L125 284z"/>
<path style="fill:#9d1f27; stroke:none;" d="M210 284L210 285L213 285L210 284M278 284L279 285L278 284z"/>
<path style="fill:#5c171b; stroke:none;" d="M285 284L286 285L285 284z"/>
<path style="fill:#731a1f; stroke:none;" d="M288 284L289 285L288 284M308 284L309 285L308 284M312 284L313 285L312 284M332 284L333 285L332 284M336 284L337 285L336 284M110 285L111 286L110 285z"/>
<path style="fill:#5c171b; stroke:none;" d="M126 285L127 286L126 285z"/>
<path style="fill:#9d1f27; stroke:none;" d="M279 285L280 286L279 285z"/>
<path style="fill:#731a1f; stroke:none;" d="M286 285L287 286L286 285M289 285L290 286L289 285z"/>
<path style="fill:#5c171b; stroke:none;" d="M309 285L310 286L309 285z"/>
<path style="fill:#9d1f27; stroke:none;" d="M310 285L311 286L310 285M314 285L315 286L314 285z"/>
<path style="fill:#5c171b; stroke:none;" d="M315 285L316 286L315 285M329 285L330 286L329 285z"/>
<path style="fill:#9d1f27; stroke:none;" d="M330 285L331 286L330 285M334 285L335 286L334 285z"/>
<path style="fill:#731a1f; stroke:none;" d="M111 286L112 287L111 286z"/>
<path style="fill:#5c171b; stroke:none;" d="M277 286L278 287L277 286z"/>
<path style="fill:#731a1f; stroke:none;" d="M280 286L281 287L280 286M287 286L288 287L287 286z"/>
<path style="fill:#5c171b; stroke:none;" d="M290 286L291 287L290 286M311 286L312 287L311 286z"/>
<path style="fill:#9d1f27; stroke:none;" d="M312 286L313 287L312 286M317 286L318 287L317 286z"/>
<path style="fill:#731a1f; stroke:none;" d="M318 286L319 287L318 286z"/>
<path style="fill:#5c171b; stroke:none;" d="M319.667 286.333L320.333 286.667L319.667 286.333M323 286L323 287L326 287L323 286z"/>
<path style="fill:#731a1f; stroke:none;" d="M326 286L327 287L326 286z"/>
<path style="fill:#9d1f27; stroke:none;" d="M327 286L328 287L327 286M332 286L333 287L332 286z"/>
<path style="fill:#5c171b; stroke:none;" d="M333 286L334 287L333 286z"/>
<path style="fill:#9d1f27; stroke:none;" d="M112 287L113 288L112 287z"/>
<path style="fill:#5c171b; stroke:none;" d="M278 287L279 288L278 287M313 287L314 288L313 287z"/>
<path style="fill:#9d1f27; stroke:none;" d="M314.667 287.333L315.333 287.667L314.667 287.333M329.667 287.333L330.333 287.667L329.667 287.333z"/>
<path style="fill:#5c171b; stroke:none;" d="M331 287L332 288L331 287z"/>
<path style="fill:#9d1f27; stroke:none;" d="M113 288L113 289L128 289L113 288z"/>
<path style="fill:#731a1f; stroke:none;" d="M128 288L129 289L128 288M205 288L206 289L205 288z"/>
<path style="fill:#5c171b; stroke:none;" d="M217 288L218 289L217 288z"/>
<path style="fill:#731a1f; stroke:none;" d="M279 288L280 289L279 288z"/>
<path style="fill:#9d1f27; stroke:none;" d="M280 288L280 289L292 289L280 288z"/>
<path style="fill:#731a1f; stroke:none;" d="M317 288L318 289L317 288z"/>
<path style="fill:#9d1f27; stroke:none;" d="M318 288L318 289L327 289L318 288z"/>
<path style="fill:#731a1f; stroke:none;" d="M327 288L328 289L327 288z"/>
</svg>
